<svg xmlns="http://www.w3.org/2000/svg" xmlns:xlink="http://www.w3.org/1999/xlink" contentStyleType="text/css" data-diagram-type="ACTIVITY" height="340px" preserveAspectRatio="none" style="width:230px;height:340px;background:#FFFFFF;" version="1.1" viewBox="0 0 230 340" width="230px" zoomAndPan="magnify"><defs/><g><ellipse cx="115.0547" cy="20" fill="#222222" rx="10" ry="10" style="stroke:#222222;stroke-width:1;"/><rect fill="#F1F1F1" height="47.9375" rx="12.5" ry="12.5" style="stroke:#181818;stroke-width:0.5;" width="144.7227" x="42.6934" y="50"/><text fill="#000000" font-family="sans-serif" font-size="12" lengthAdjust="spacing" textLength="124.7227" x="52.6934" y="71.1387">grok important flows</text><text fill="#000000" font-family="sans-serif" font-size="12" lengthAdjust="spacing" textLength="94.3125" x="52.6934" y="85.1074">in rust-web-app</text><rect fill="#F1F1F1" height="47.9375" rx="12.5" ry="12.5" style="stroke:#181818;stroke-width:0.5;" width="156.7051" x="36.7021" y="117.9375"/><text fill="#000000" font-family="sans-serif" font-size="12" lengthAdjust="spacing" textLength="136.7051" x="46.7021" y="139.0762">refactor guided by this</text><text fill="#000000" font-family="sans-serif" font-size="12" lengthAdjust="spacing" textLength="65.0449" x="50.5166" y="153.0449">knowledge</text><rect fill="#F1F1F1" height="33.9688" rx="12.5" ry="12.5" style="stroke:#181818;stroke-width:0.5;" width="208.1094" x="11" y="185.875"/><text fill="#000000" font-family="sans-serif" font-size="12" lengthAdjust="spacing" textLength="188.1094" x="21" y="207.0137">upgrade to worker architecture</text><rect fill="#F1F1F1" height="47.9375" rx="12.5" ry="12.5" style="stroke:#181818;stroke-width:0.5;" width="169.1738" x="30.4678" y="239.8438"/><text fill="#000000" font-family="sans-serif" font-size="12" lengthAdjust="spacing" textLength="149.1738" x="40.4678" y="260.9824">create a NLP/LLM worker</text><text fill="#000000" font-family="sans-serif" font-size="12" lengthAdjust="spacing" textLength="71.8594" x="40.4678" y="274.9512">POC service</text><ellipse cx="115.0547" cy="318.7813" fill="#FFFFFF" fill-opacity="0.00000" rx="11" ry="11" style="stroke:#222222;stroke-width:1;"/><ellipse cx="115.0547" cy="318.7813" fill="#222222" rx="6" ry="6" style="stroke:#222222;stroke-width:1;"/><line style="stroke:#181818;stroke-width:1;" x1="115.0547" x2="115.0547" y1="30" y2="50"/><polygon fill="#181818" points="111.0547,40,115.0547,50,119.0547,40,115.0547,44" style="stroke:#181818;stroke-width:1;"/><line style="stroke:#181818;stroke-width:1;" x1="115.0547" x2="115.0547" y1="97.9375" y2="117.9375"/><polygon fill="#181818" points="111.0547,107.9375,115.0547,117.9375,119.0547,107.9375,115.0547,111.9375" style="stroke:#181818;stroke-width:1;"/><line style="stroke:#181818;stroke-width:1;" x1="115.0547" x2="115.0547" y1="165.875" y2="185.875"/><polygon fill="#181818" points="111.0547,175.875,115.0547,185.875,119.0547,175.875,115.0547,179.875" style="stroke:#181818;stroke-width:1;"/><line style="stroke:#181818;stroke-width:1;" x1="115.0547" x2="115.0547" y1="219.8438" y2="239.8438"/><polygon fill="#181818" points="111.0547,229.8438,115.0547,239.8438,119.0547,229.8438,115.0547,233.8438" style="stroke:#181818;stroke-width:1;"/><line style="stroke:#181818;stroke-width:1;" x1="115.0547" x2="115.0547" y1="287.7813" y2="307.7813"/><polygon fill="#181818" points="111.0547,297.7813,115.0547,307.7813,119.0547,297.7813,115.0547,301.7813" style="stroke:#181818;stroke-width:1;"/><!--SRC=[BSen4e8m40NGdbFi1HXxB6rHEG3DaYmX0sOpFniptbwSyTMl6CEw8K1tYg-iC4v6ww6jp2acGYtMDrbwpldQ3P2LdIaerEZ5q_8Xs-9PQK_Q3l51pbLp07iXKsgANK0CjqKJPnM_u21iGaoFSRgCu_tVvZGzRrG4x-ZELapp5m00]--></g></svg>