<svg xmlns="http://www.w3.org/2000/svg" xmlns:xlink="http://www.w3.org/1999/xlink" contentStyleType="text/css" data-diagram-type="DESCRIPTION" height="1494px" preserveAspectRatio="none" style="width:1186px;height:1494px;background:#FFFFFF;" version="1.1" viewBox="0 0 1186 1494" width="1186px" zoomAndPan="magnify"><title>|Color| Type |</title><defs/><g><text fill="#000000" font-family="sans-serif" font-size="14" font-weight="bold" lengthAdjust="spacing" textLength="41.2139" x="488.6836" y="24.9951">Color</text><text fill="#000000" font-family="sans-serif" font-size="14" font-weight="bold" lengthAdjust="spacing" textLength="38.1924" x="534.7715" y="24.9951">Type</text><rect fill="#FFFF00" height="16.2969" style="stroke:#FFFFFF00;stroke-width:1;" width="41.2139" x="488.6836" y="28.2969"/><text fill="#000000" font-family="sans-serif" font-size="14" font-weight="bold" lengthAdjust="spacing" textLength="4.874" x="488.6836" y="41.292">&#160;</text><text fill="#000000" font-family="sans-serif" font-size="14" font-weight="bold" lengthAdjust="spacing" textLength="112.3691" x="534.7715" y="41.292">Authenticated</text><rect fill="#FFA500" height="16.2969" style="stroke:#FFFFFF00;stroke-width:1;" width="41.2139" x="488.6836" y="44.5938"/><text fill="#000000" font-family="sans-serif" font-size="14" font-weight="bold" lengthAdjust="spacing" textLength="4.874" x="488.6836" y="57.5889">&#160;</text><text fill="#000000" font-family="sans-serif" font-size="14" font-weight="bold" lengthAdjust="spacing" textLength="80.6436" x="534.7715" y="57.5889">RPC Chain</text><rect fill="#008000" height="16.2969" style="stroke:#FFFFFF00;stroke-width:1;" width="41.2139" x="488.6836" y="60.8906"/><text fill="#000000" font-family="sans-serif" font-size="14" font-weight="bold" lengthAdjust="spacing" textLength="4.874" x="488.6836" y="73.8857">&#160;</text><text fill="#000000" font-family="sans-serif" font-size="14" font-weight="bold" lengthAdjust="spacing" textLength="148.5449" x="534.7715" y="73.8857">Non Authenticated</text><line style="stroke:#000000;stroke-width:1;" x1="488.6836" x2="683.3164" y1="12" y2="12"/><line style="stroke:#000000;stroke-width:1;" x1="488.6836" x2="683.3164" y1="28.2969" y2="28.2969"/><line style="stroke:#000000;stroke-width:1;" x1="488.6836" x2="683.3164" y1="44.5938" y2="44.5938"/><line style="stroke:#000000;stroke-width:1;" x1="488.6836" x2="683.3164" y1="60.8906" y2="60.8906"/><line style="stroke:#000000;stroke-width:1;" x1="488.6836" x2="683.3164" y1="77.1875" y2="77.1875"/><line style="stroke:#000000;stroke-width:1;" x1="488.6836" x2="488.6836" y1="12" y2="77.1875"/><line style="stroke:#000000;stroke-width:1;" x1="529.8975" x2="529.8975" y1="12" y2="77.1875"/><line style="stroke:#000000;stroke-width:1;" x1="683.3164" x2="683.3164" y1="12" y2="77.1875"/><text fill="#000000" font-family="sans-serif" font-size="14" font-weight="bold" lengthAdjust="spacing" textLength="4.874" x="583.563" y="92.1826">&#160;</text><!--cluster Service 1--><g id="cluster_Service 1"><rect fill="#008000" height="113.3" rx="2.5" ry="2.5" style="stroke:#181818;stroke-width:1;" width="203" x="466" y="1202.9144"/><path d="M548.8164,1202.9144 L548.8164,1212.2113 L538.8164,1222.2113 L466,1222.2113 " fill="#FFFFFF" fill-opacity="0.00000" style="stroke:#181818;stroke-width:1;"/><text fill="#000000" font-family="sans-serif" font-size="14" font-weight="bold" lengthAdjust="spacing" textLength="72.8164" x="469" y="1216.9095">Service 1</text></g><!--cluster Service 2--><g id="cluster_Service 2"><rect fill="#008000" height="113.3" rx="2.5" ry="2.5" style="stroke:#181818;stroke-width:1;" width="203" x="709" y="1202.9144"/><path d="M791.8164,1202.9144 L791.8164,1212.2113 L781.8164,1222.2113 L709,1222.2113 " fill="#FFFFFF" fill-opacity="0.00000" style="stroke:#181818;stroke-width:1;"/><text fill="#000000" font-family="sans-serif" font-size="14" font-weight="bold" lengthAdjust="spacing" textLength="72.8164" x="712" y="1216.9095">Service 2</text></g><!--cluster API Gateway--><g id="cluster_API Gateway"><rect fill="#FFFF00" height="824.99" rx="2.5" ry="2.5" style="stroke:#181818;stroke-width:1;" width="728" x="7" y="338.9244"/><rect fill="#FFFF00" height="10" style="stroke:#181818;stroke-width:1;" width="15" x="715" y="343.9244"/><rect fill="#FFFF00" height="2" style="stroke:#181818;stroke-width:1;" width="4" x="713" y="345.9244"/><rect fill="#FFFF00" height="2" style="stroke:#181818;stroke-width:1;" width="4" x="713" y="349.9244"/><text fill="#000000" font-family="sans-serif" font-size="14" font-weight="bold" lengthAdjust="spacing" textLength="99.8115" x="321.0942" y="364.9195">API Gateway</text></g><!--cluster rpc_remote--><g id="cluster_rpc_remote"><rect fill="#FFA500" height="129.6" rx="2.5" ry="2.5" style="stroke:#181818;stroke-width:1;" width="291" x="211" y="728.1644"/><rect fill="#FFA500" height="10" style="stroke:#181818;stroke-width:1;" width="15" x="482" y="733.1644"/><rect fill="#FFA500" height="2" style="stroke:#181818;stroke-width:1;" width="4" x="480" y="735.1644"/><rect fill="#FFA500" height="2" style="stroke:#181818;stroke-width:1;" width="4" x="480" y="739.1644"/><text fill="#000000" font-family="sans-serif" font-size="14" font-weight="bold" lengthAdjust="spacing" textLength="64.832" x="248.4888" y="754.1595">/api/rpc/</text><text fill="#000000" font-family="sans-serif" font-size="14" font-weight="bold" lengthAdjust="spacing" textLength="141.4424" x="323.0688" y="754.1595">service  /  method</text></g><!--cluster Web Client--><g id="cluster_Web Client"><rect fill="#FFA500" height="145.89" rx="2.5" ry="2.5" style="stroke:#181818;stroke-width:1;" width="243" x="460" y="906.7644"/><rect fill="#FFA500" height="10" style="stroke:#181818;stroke-width:1;" width="15" x="683" y="911.7644"/><rect fill="#FFA500" height="2" style="stroke:#181818;stroke-width:1;" width="4" x="681" y="913.7644"/><rect fill="#FFA500" height="2" style="stroke:#181818;stroke-width:1;" width="4" x="681" y="917.7644"/><text fill="#000000" font-family="sans-serif" font-size="14" font-weight="bold" lengthAdjust="spacing" textLength="85.8594" x="538.5703" y="932.7595">Web Client</text></g><!--cluster DB--><g id="cluster_DB"><path d="M751,216.7744 C751,206.7744 960,206.7744 960,206.7744 C960,206.7744 1169,206.7744 1169,216.7744 L1169,408.0744 C1169,418.0744 960,418.0744 960,418.0744 C960,418.0744 751,418.0744 751,408.0744 L751,216.7744 " fill="#FFFFFF" fill-opacity="0.00000" style="stroke:#181818;stroke-width:1;"/><path d="M751,216.7744 C751,226.7744 960,226.7744 960,226.7744 C960,226.7744 1169,226.7744 1169,216.7744 " fill="#FFFFFF" fill-opacity="0.00000" style="stroke:#181818;stroke-width:1;"/><text fill="#000000" font-family="sans-serif" font-size="14" font-weight="bold" lengthAdjust="spacing" textLength="22.292" x="948.854" y="241.7695">DB</text></g><!--cluster Auth Tables--><g id="cluster_Auth Tables"><path d="M785.5,272.7744 L880.4805,272.7744 A3.75,3.75 0 0 1 882.9805,275.2744 L889.9805,295.0713 L1134.5,295.0713 A2.5,2.5 0 0 1 1137,297.5713 L1137,383.5744 A2.5,2.5 0 0 1 1134.5,386.0744 L785.5,386.0744 A2.5,2.5 0 0 1 783,383.5744 L783,275.2744 A2.5,2.5 0 0 1 785.5,272.7744 " fill="#FFFFFF" fill-opacity="0.00000" style="stroke:#000000;stroke-width:1.5;"/><line style="stroke:#000000;stroke-width:1.5;" x1="783" x2="889.9805" y1="295.0713" y2="295.0713"/><text fill="#000000" font-family="sans-serif" font-size="14" font-weight="bold" lengthAdjust="spacing" textLength="93.9805" x="787" y="287.7695">Auth Tables</text></g><!--entity web worker 1--><g id="elem_web worker 1"><rect fill="#90EE90" height="46.2969" rx="2.5" ry="2.5" style="stroke:#181818;stroke-width:0.5;" width="135.0059" x="490.5" y="1245.9144"/><rect fill="#90EE90" height="10" style="stroke:#181818;stroke-width:0.5;" width="15" x="605.5059" y="1250.9144"/><rect fill="#90EE90" height="2" style="stroke:#181818;stroke-width:0.5;" width="4" x="603.5059" y="1252.9144"/><rect fill="#90EE90" height="2" style="stroke:#181818;stroke-width:0.5;" width="4" x="603.5059" y="1256.9144"/><text fill="#000000" font-family="sans-serif" font-size="14" lengthAdjust="spacing" textLength="95.0059" x="505.5" y="1278.9095">web worker 1</text></g><!--entity web worker 2--><g id="elem_web worker 2"><rect fill="#90EE90" height="46.2969" rx="2.5" ry="2.5" style="stroke:#181818;stroke-width:0.5;" width="135.0059" x="733.5" y="1245.9144"/><rect fill="#90EE90" height="10" style="stroke:#181818;stroke-width:0.5;" width="15" x="848.5059" y="1250.9144"/><rect fill="#90EE90" height="2" style="stroke:#181818;stroke-width:0.5;" width="4" x="846.5059" y="1252.9144"/><rect fill="#90EE90" height="2" style="stroke:#181818;stroke-width:0.5;" width="4" x="846.5059" y="1256.9144"/><text fill="#000000" font-family="sans-serif" font-size="14" lengthAdjust="spacing" textLength="95.0059" x="748.5" y="1278.9095">web worker 2</text></g><text fill="#000000" font-family="sans-serif" font-size="14" lengthAdjust="spacing" textLength="36.0732" x="523.9634" y="317.6226">HTTP</text><rect fill="#F1F1F1" height="12" style="stroke:#181818;stroke-width:1.5;" width="12" x="536" y="332.9244"/><!--entity RPC Demux--><g id="elem_RPC Demux"><rect fill="#FFA500" height="46.2969" rx="2.5" ry="2.5" style="stroke:#181818;stroke-width:0.5;" width="122.585" x="313.71" y="599.6244"/><rect fill="#FFA500" height="10" style="stroke:#181818;stroke-width:0.5;" width="15" x="416.295" y="604.6244"/><rect fill="#FFA500" height="2" style="stroke:#181818;stroke-width:0.5;" width="4" x="414.295" y="606.6244"/><rect fill="#FFA500" height="2" style="stroke:#181818;stroke-width:0.5;" width="4" x="414.295" y="610.6244"/><text fill="#000000" font-family="sans-serif" font-size="14" lengthAdjust="spacing" textLength="82.585" x="328.71" y="632.6195">RPC Demux</text></g><!--entity rpc_local--><g id="elem_rpc_local"><rect fill="#FFA500" height="46.2969" rx="2.5" ry="2.5" style="stroke:#181818;stroke-width:0.5;" width="158.2275" x="28.89" y="779.3144"/><rect fill="#FFA500" height="10" style="stroke:#181818;stroke-width:0.5;" width="15" x="167.1175" y="784.3144"/><rect fill="#FFA500" height="2" style="stroke:#181818;stroke-width:0.5;" width="4" x="165.1175" y="786.3144"/><rect fill="#FFA500" height="2" style="stroke:#181818;stroke-width:0.5;" width="4" x="165.1175" y="790.3144"/><text fill="#000000" font-family="sans-serif" font-size="14" lengthAdjust="spacing" textLength="57.8457" x="43.89" y="812.3095">/api/rpc/</text><text fill="#000000" font-family="sans-serif" font-size="14" font-weight="bold" lengthAdjust="spacing" textLength="60.3818" x="101.7357" y="812.3095">method</text></g><!--entity axum_rpc_handler--><g id="elem_axum_rpc_handler"><rect fill="#FFA500" height="46.2969" rx="2.5" ry="2.5" style="stroke:#181818;stroke-width:0.5;" width="169.1855" x="23.41" y="966.0544"/><rect fill="#FFA500" height="10" style="stroke:#181818;stroke-width:0.5;" width="15" x="172.5955" y="971.0544"/><rect fill="#FFA500" height="2" style="stroke:#181818;stroke-width:0.5;" width="4" x="170.5955" y="973.0544"/><rect fill="#FFA500" height="2" style="stroke:#181818;stroke-width:0.5;" width="4" x="170.5955" y="977.0544"/><text fill="#000000" font-family="sans-serif" font-size="14" lengthAdjust="spacing" textLength="129.1855" x="38.41" y="999.0495">axum_rpc_handler</text></g><!--entity Auth--><g id="elem_Auth"><rect fill="#F1F1F1" height="46.2969" rx="2.5" ry="2.5" style="stroke:#181818;stroke-width:0.5;" width="72.8125" x="569.59" y="465.0744"/><rect fill="#F1F1F1" height="10" style="stroke:#181818;stroke-width:0.5;" width="15" x="622.4025" y="470.0744"/><rect fill="#F1F1F1" height="2" style="stroke:#181818;stroke-width:0.5;" width="4" x="620.4025" y="472.0744"/><rect fill="#F1F1F1" height="2" style="stroke:#181818;stroke-width:0.5;" width="4" x="620.4025" y="476.0744"/><text fill="#000000" font-family="sans-serif" font-size="14" lengthAdjust="spacing" textLength="32.8125" x="584.59" y="498.0695">Auth</text></g><!--entity Service Resolution Data--><g id="elem_Service Resolution Data"><rect fill="#F1F1F1" height="46.2969" rx="2.5" ry="2.5" style="stroke:#181818;stroke-width:0.5;" width="207.8496" x="228.08" y="966.0544"/><rect fill="#F1F1F1" height="10" style="stroke:#181818;stroke-width:0.5;" width="15" x="415.9296" y="971.0544"/><rect fill="#F1F1F1" height="2" style="stroke:#181818;stroke-width:0.5;" width="4" x="413.9296" y="973.0544"/><rect fill="#F1F1F1" height="2" style="stroke:#181818;stroke-width:0.5;" width="4" x="413.9296" y="977.0544"/><text fill="#000000" font-family="sans-serif" font-size="14" lengthAdjust="spacing" textLength="167.8496" x="243.08" y="999.0495">Service Resolution Data</text></g><g id="elem_GMN26"><path d="M471.1,572.3744 L471.1,618.7644 L436.45,622.7644 L471.1,626.7644 L471.1,673.1713 A0,0 0 0 0 471.1,673.1713 L718.9018,673.1713 A0,0 0 0 0 718.9018,673.1713 L718.9018,582.3744 L708.9018,572.3744 L471.1,572.3744 A0,0 0 0 0 471.1,572.3744 " fill="#FEFFDD" style="stroke:#181818;stroke-width:0.5;"/><path d="M708.9018,572.3744 L708.9018,582.3744 L718.9018,582.3744 L708.9018,572.3744 " fill="#FEFFDD" style="stroke:#181818;stroke-width:0.5;"/><text fill="#000000" font-family="sans-serif" font-size="13" lengthAdjust="spacing" textLength="101.5371" x="477.1" y="589.4413">method of form</text><text fill="#000000" font-family="sans-serif" font-size="13" font-weight="bold" lengthAdjust="spacing" textLength="52.4189" x="582.7694" y="589.4413">service</text><text fill="#000000" font-family="sans-serif" font-size="13" lengthAdjust="spacing" textLength="4.3799" x="639.3207" y="589.4413">/</text><text fill="#000000" font-family="sans-serif" font-size="13" font-weight="bold" lengthAdjust="spacing" textLength="56.0688" x="647.8329" y="589.4413">method</text><text fill="#000000" font-family="sans-serif" font-size="13" lengthAdjust="spacing" textLength="126.2485" x="477.1" y="604.5741">needs to be sent to</text><text fill="#000000" font-family="sans-serif" font-size="13" font-weight="bold" lengthAdjust="spacing" textLength="52.4189" x="607.4809" y="604.5741">service</text><text fill="#000000" font-family="sans-serif" font-size="13" lengthAdjust="spacing" textLength="4.1323" x="477.1" y="619.7069">&#160;</text><text fill="#000000" font-family="sans-serif" font-size="13" lengthAdjust="spacing" textLength="63.6479" x="477.1" y="634.8397">otherwise</text><text fill="#000000" font-family="sans-serif" font-size="13" lengthAdjust="spacing" textLength="4.1323" x="477.1" y="649.9725">&#160;</text><text fill="#000000" font-family="sans-serif" font-size="13" lengthAdjust="spacing" textLength="185.4214" x="477.1" y="665.1053">It is handled by the gateway</text></g><g id="elem_GMN29"><path d="M32.8,1107.6544 L32.8,1147.92 A0,0 0 0 0 32.8,1147.92 L625.2097,1147.92 A0,0 0 0 0 625.2097,1147.92 L625.2097,1117.6544 L615.2097,1107.6544 L333.43,1107.6544 L331.5,1012.7644 L325.43,1107.6544 L32.8,1107.6544 A0,0 0 0 0 32.8,1107.6544 " fill="#FEFFDD" style="stroke:#181818;stroke-width:0.5;"/><path d="M615.2097,1107.6544 L615.2097,1117.6544 L625.2097,1117.6544 L615.2097,1107.6544 " fill="#FEFFDD" style="stroke:#181818;stroke-width:0.5;"/><text fill="#000000" font-family="sans-serif" font-size="13" lengthAdjust="spacing" textLength="89.1021" x="38.8" y="1124.7213">.toml file with</text><text fill="#000000" font-family="sans-serif" font-size="13" lengthAdjust="spacing" textLength="571.4097" x="38.8" y="1139.8541">SERVICE_RESOLUTION_LLM = '{"name": "llm-worker", "host": "localhost", "port":8081}'</text></g><!--entity service ? URL\nservice/method ? method--><g id="elem_service &#8594; URL\nservice/method &#8594; method"><rect fill="#FFD700" height="62.5938" rx="2.5" ry="2.5" style="stroke:#181818;stroke-width:0.5;" width="223.627" x="235.19" y="771.1644"/><rect fill="#FFD700" height="10" style="stroke:#181818;stroke-width:0.5;" width="15" x="438.817" y="776.1644"/><rect fill="#FFD700" height="2" style="stroke:#181818;stroke-width:0.5;" width="4" x="436.817" y="778.1644"/><rect fill="#FFD700" height="2" style="stroke:#181818;stroke-width:0.5;" width="4" x="436.817" y="782.1644"/><text fill="#000000" font-family="sans-serif" font-size="14" lengthAdjust="spacing" textLength="98.5537" x="250.19" y="804.1595">service &#8594; URL</text><text fill="#000000" font-family="sans-serif" font-size="14" lengthAdjust="spacing" textLength="183.627" x="250.19" y="820.4564">service/method &#8594; method</text></g><!--entity URL \nCtx ? HTTP Header\nJSON rpc2 ? Body--><g id="elem_URL \nCtx &#8594; HTTP Header\nJSON rpc2 &#8594; Body"><rect fill="#FFD700" height="78.8906" rx="2.5" ry="2.5" style="stroke:#181818;stroke-width:0.5;" width="175.6797" x="484.16" y="949.7644"/><rect fill="#FFD700" height="10" style="stroke:#181818;stroke-width:0.5;" width="15" x="639.8397" y="954.7644"/><rect fill="#FFD700" height="2" style="stroke:#181818;stroke-width:0.5;" width="4" x="637.8397" y="956.7644"/><rect fill="#FFD700" height="2" style="stroke:#181818;stroke-width:0.5;" width="4" x="637.8397" y="960.7644"/><text fill="#000000" font-family="sans-serif" font-size="14" lengthAdjust="spacing" textLength="27.7744" x="499.16" y="982.7595">URL</text><text fill="#000000" font-family="sans-serif" font-size="14" lengthAdjust="spacing" textLength="135.6797" x="499.16" y="999.0564">Ctx &#8594; HTTP Header</text><text fill="#000000" font-family="sans-serif" font-size="14" lengthAdjust="spacing" textLength="126.1777" x="499.16" y="1015.3532">JSON rpc2 &#8594; Body</text></g><!--entity User Table--><g id="elem_User Table"><rect fill="#F1F1F1" height="46.2969" rx="2.5" ry="2.5" style="stroke:#181818;stroke-width:0.5;" width="114.8809" x="806.56" y="315.7744"/><rect fill="#F1F1F1" height="10" style="stroke:#181818;stroke-width:0.5;" width="15" x="901.4409" y="320.7744"/><rect fill="#F1F1F1" height="2" style="stroke:#181818;stroke-width:0.5;" width="4" x="899.4409" y="322.7744"/><rect fill="#F1F1F1" height="2" style="stroke:#181818;stroke-width:0.5;" width="4" x="899.4409" y="326.7744"/><text fill="#000000" font-family="sans-serif" font-size="14" lengthAdjust="spacing" textLength="74.8809" x="821.56" y="348.7695">User Table</text></g><!--entity Session Table--><g id="elem_Session Table"><rect fill="#F1F1F1" height="46.2969" rx="2.5" ry="2.5" style="stroke:#181818;stroke-width:0.5;" width="136.3867" x="956.81" y="315.7744"/><rect fill="#F1F1F1" height="10" style="stroke:#181818;stroke-width:0.5;" width="15" x="1073.1967" y="320.7744"/><rect fill="#F1F1F1" height="2" style="stroke:#181818;stroke-width:0.5;" width="4" x="1071.1967" y="322.7744"/><rect fill="#F1F1F1" height="2" style="stroke:#181818;stroke-width:0.5;" width="4" x="1071.1967" y="326.7744"/><text fill="#000000" font-family="sans-serif" font-size="14" lengthAdjust="spacing" textLength="96.3867" x="971.81" y="348.7695">Session Table</text></g><!--entity Browser--><g id="elem_Browser"><rect fill="#F1F1F1" height="46.2969" rx="2.5" ry="2.5" style="stroke:#181818;stroke-width:0.5;" width="97.0391" x="493.48" y="113.4844"/><rect fill="#F1F1F1" height="10" style="stroke:#181818;stroke-width:0.5;" width="15" x="570.5191" y="118.4844"/><rect fill="#F1F1F1" height="2" style="stroke:#181818;stroke-width:0.5;" width="4" x="568.5191" y="120.4844"/><rect fill="#F1F1F1" height="2" style="stroke:#181818;stroke-width:0.5;" width="4" x="568.5191" y="124.4844"/><text fill="#000000" font-family="sans-serif" font-size="14" lengthAdjust="spacing" textLength="57.0391" x="508.48" y="146.4795">Browser</text></g><g id="elem_GMN40"><path d="M450.47,1371.2144 L450.47,1487.1441 A0,0 0 0 0 450.47,1487.1441 L665.5305,1487.1441 A0,0 0 0 0 665.5305,1487.1441 L665.5305,1381.2144 L655.5305,1371.2144 L562,1371.2144 L558,1292.3844 L554,1371.2144 L450.47,1371.2144 A0,0 0 0 0 450.47,1371.2144 " fill="#FEFFDD" style="stroke:#181818;stroke-width:0.5;"/><path d="M655.5305,1371.2144 L655.5305,1381.2144 L665.5305,1381.2144 L655.5305,1371.2144 " fill="#FEFFDD" style="stroke:#181818;stroke-width:0.5;"/><text fill="#000000" font-family="sans-serif" font-size="13" lengthAdjust="spacing" textLength="185.1484" x="456.47" y="1388.2813">To start these can simply be</text><text fill="#000000" font-family="sans-serif" font-size="13" lengthAdjust="spacing" textLength="194.0605" x="456.47" y="1403.4141">json-rpc web-services without</text><text fill="#000000" font-family="sans-serif" font-size="13" lengthAdjust="spacing" textLength="33.6743" x="456.47" y="1418.5469">auth.</text><text fill="#000000" font-family="sans-serif" font-size="13" lengthAdjust="spacing" textLength="4.1323" x="456.47" y="1433.6797">&#160;</text><text fill="#000000" font-family="sans-serif" font-size="13" lengthAdjust="spacing" textLength="187.9668" x="456.47" y="1448.8125">They instead take previously</text><text fill="#000000" font-family="sans-serif" font-size="13" lengthAdjust="spacing" textLength="153.3149" x="456.47" y="1463.9453">auth'd context over the</text><text fill="#000000" font-family="sans-serif" font-size="13" lengthAdjust="spacing" textLength="137.2617" x="456.47" y="1479.0781">HTTP request header</text></g><!--link Auth to RPC Demux--><g id="link_Auth_RPC Demux"><path d="M569.12,508.6244 C538.13,525.1144 492.81,549.6544 454,572.3744 C439.48,580.8744 428.7935,587.4113 415.2035,595.9913 " fill="#FFFFFF" fill-opacity="0.00000" id="Auth-to-RPC Demux" style="stroke:#181818;stroke-width:1;"/><polygon fill="#181818" points="410.13,599.1944,419.8756,597.772,414.3579,596.5251,415.6048,591.0074,410.13,599.1944" style="stroke:#181818;stroke-width:1;"/></g><!--link RPC Demux to rpc_local--><g id="link_RPC Demux_rpc_local"><path d="M330.83,646.3344 C298.95,663.1944 255.31,687.5144 219,712.1644 C188.31,733.0044 160.0192,756.1723 138.0992,775.0223 " fill="#FFFFFF" fill-opacity="0.00000" id="RPC Demux-to-rpc_local" style="stroke:#181818;stroke-width:1;"/><polygon fill="#181818" points="133.55,778.9344,142.9819,776.0991,137.341,775.6743,137.7658,770.0334,133.55,778.9344" style="stroke:#181818;stroke-width:1;"/></g><!--link RPC Demux to rpc_remote--><g id="link_RPC Demux_rpc_remote"><path d="M410.33,646.2344 C432.29,662.0444 459.23,685.1544 475,712.1644 C477.4763,716.4081 479.6314,720.9336 481.5069,725.6103 C481.7414,726.1949 481.9714,726.7819 482.1972,727.3709 C482.2536,727.5182 480.1835,722.055 480.2394,722.2025 " fill="#FFFFFF" fill-opacity="0.00000" id="RPC Demux-to-rpc_remote" style="stroke:#181818;stroke-width:1;"/><polygon fill="#181818" points="482.3657,727.8131,482.9166,717.9797,480.5938,723.1376,475.4358,720.8148,482.3657,727.8131" style="stroke:#181818;stroke-width:1;"/></g><!--link rpc_local to axum_rpc_handler--><g id="link_rpc_local_axum_rpc_handler"><path d="M108,825.7444 C108,861.2544 108,924.2844 108,959.8444 " fill="#FFFFFF" fill-opacity="0.00000" id="rpc_local-to-axum_rpc_handler" style="stroke:#181818;stroke-width:1;"/><polygon fill="#181818" points="108,965.8444,112,956.8444,108,960.8444,104,956.8444,108,965.8444" style="stroke:#181818;stroke-width:1;"/></g><!--link rpc_remote to Web Client--><g id="link_rpc_remote_Web Client"><path d="M502.3224,804.7642 C502.8522,804.8555 503.4047,804.9521 503.9794,805.0541 C505.1286,805.2581 506.3662,805.4836 507.6864,805.7319 C510.3266,806.2285 513.297,806.8159 516.5509,807.5031 C529.5669,810.2519 547.1213,814.5969 566.2425,821.1094 C604.485,834.1344 648.995,855.8294 676,890.7644 C679.32,895.0594 682.1106,899.7727 684.4519,904.7363 C684.7446,905.3567 682.5957,900.4972 682.8744,901.1251 " fill="#FFFFFF" fill-opacity="0.00000" id="rpc_remote-to-Web Client" style="stroke:#181818;stroke-width:1;"/><polygon fill="#181818" points="685.309,906.609,685.3131,896.7602,683.2802,902.0391,678.0012,900.0062,685.309,906.609" style="stroke:#181818;stroke-width:1;"/></g><!--link rpc_remote to Service Resolution Data--><g id="link_rpc_remote_Service Resolution Data"><path d="M483.1244,857.7679 C482.3826,859.6438 481.5905,861.5 480.7448,863.3234 C479.0534,866.9702 477.1475,870.4856 475,873.7644 C449.04,913.3944 409.9517,942.5064 377.5617,962.5564 " fill="#FFFFFF" fill-opacity="0.00000" id="rpc_remote-to-Service Resolution Data" style="stroke:#181818;stroke-width:1;stroke-dasharray:7.0,7.0;"/><polygon fill="#181818" points="372.46,965.7144,382.2178,964.3785,376.7114,963.0827,378.0071,957.5762,372.46,965.7144" style="stroke:#181818;stroke-width:1;"/></g><!--link Web Client to Service 1--><g id="link_Web Client_Service 1"><path d="M687.3177,1052.9568 C687.2063,1053.8673 687.0941,1054.7842 686.9812,1055.7071 C686.0778,1063.0905 685.127,1070.8621 684.1445,1078.8926 C682.1795,1094.9535 680.0878,1112.0497 677.9962,1129.1456 C675.9047,1146.2416 673.8132,1163.3373 671.8485,1179.3972 C670.8661,1187.4272 670.644,1189.2427 669.7409,1196.6254 " fill="#FFFFFF" fill-opacity="0.00000" id="Web Client-to-Service 1" style="stroke:#181818;stroke-width:1;"/><polygon fill="#181818" points="669.0124,1202.581,674.0756,1194.1333,669.6195,1197.618,666.1348,1193.1619,669.0124,1202.581" style="stroke:#181818;stroke-width:1;"/><text fill="#000000" font-family="sans-serif" font-size="13" lengthAdjust="spacing" textLength="33.4966" x="681" y="1132.3513">HTTP</text></g><!--link Web Client to Service 2--><g id="link_Web Client_Service 2"><path d="M703.229,996.0508 C703.3634,996.1484 703.4994,996.2472 703.6368,996.3471 C704.1865,996.7467 704.7598,997.165 705.3561,997.6017 C706.5488,998.4749 707.8332,999.4216 709.2035,1000.4396 C711.944,1002.4755 715.0279,1004.7964 718.4072,1007.3855 C731.9244,1017.7416 750.1688,1032.3863 770.0775,1050.2281 C809.895,1085.9119 856.37,1134.3844 885,1186.9144 C887.1463,1190.8531 889.0513,1195.028 890.742,1199.324 C891.1647,1200.398 889.5193,1195.8423 889.9156,1196.9297 " fill="#FFFFFF" fill-opacity="0.00000" id="Web Client-to-Service 2" style="stroke:#181818;stroke-width:1;"/><polygon fill="#181818" points="891.9703,1202.5669,892.6464,1192.7413,890.258,1197.8692,885.1301,1195.4808,891.9703,1202.5669" style="stroke:#181818;stroke-width:1;"/><text fill="#000000" font-family="sans-serif" font-size="13" lengthAdjust="spacing" textLength="33.4966" x="871" y="1132.3513">HTTP</text></g><!--link Browser to HTTP--><g id="link_Browser_HTTP"><path d="M542,160.2144 C542,206.0544 542,301.7344 542,326.4344 " fill="#FFFFFF" fill-opacity="0.00000" id="Browser-to-HTTP" style="stroke:#181818;stroke-width:1;"/><polygon fill="#181818" points="542,332.4344,546,323.4344,542,327.4344,538,323.4344,542,332.4344" style="stroke:#181818;stroke-width:1;"/></g><!--link HTTP to Auth--><g id="link_HTTP_Auth"><path d="M544.28,345.1644 C552.49,364.0744 578.5392,424.0113 593.7792,459.0913 " fill="#FFFFFF" fill-opacity="0.00000" id="HTTP-to-Auth" style="stroke:#181818;stroke-width:1;"/><polygon fill="#181818" points="596.17,464.5944,596.2526,454.7459,594.1777,460.0084,588.9151,457.9335,596.17,464.5944" style="stroke:#181818;stroke-width:1;"/></g><!--reverse link Auth Tables to Auth--><g id="link_Auth Tables_Auth"><path d="M1127.3436,392.086 C1126.4413,396.8043 1125.9336,397.3945 1124.3103,401.9659 C1121.0637,411.1088 1116.1975,419.6094 1109,426.0744 C1074.35,457.1944 752.88,478.6644 642.78,485.1644 " fill="#FFFFFF" fill-opacity="0.00000" id="Auth Tables-backto-Auth" style="stroke:#181818;stroke-width:1;"/><polygon fill="#181818" points="1128.3781,386.1759,1122.8863,394.3515,1127.516,391.101,1130.7665,395.7307,1128.3781,386.1759" style="stroke:#181818;stroke-width:1;"/></g><!--SRC=[XLJ1Rjf04BtxAqQRGoHKeE5KHMsaX4G95GqHa5OLGMZ10tPZxzBTTG05hls0VcA_fBDh6nie3ISpysRspSoRCQ69400yW7LJHbAjeR-Q8wojuUF9TumYkRXOmsLY0XGcd723VkRiA2vcICxkGnEQ0Gz5vhXLY8Bizr8S1deeV33sMSyRN2cvqAY6dZTLF4PWFLGluGJXZ46Q1buf1c2mm34if7f61MT3E6c7iy2a06zp4DtuJtHZDzhMJWacCfvBGKI1NJwqu9ROBlYAqgGToFBCfJAX07RNxpymIDi6KCGER2UkCKwMz8XqxTb7rFayhAlvf5wfn6W2wLSgG-0Q1cGRHNB2esEXR1iAKAdeh5IWVtaYPXCncqXXB0soF5D6VuzAdkBFhz_ms6q_YSnGJ_CvU_f9b6OoybsI3NZxDV5b4e_iim4NVaJZF5R1Dnf3Cmhf-mrgH0UUHDCi7GdRRhX3xgDw4fzxdNkWnnhETINzrGwxbDp0ocu8rUf5UIQfgpGZvoyQVzoVzdEOpZk5bURbO0TDA61vjCCLFVW70cerWkGoxgAMKM92MgDhRlWmgwsKWL9IplBMdBjklGLiR84EAUXnK7OfG4uFEcP_cIJ8EvKgBlHNgP002oblyGBHrs0aZ16q7IbzbeAyBL3IUL2BK6DXQXa8DQHjz66y0eB0BDr81x8Nn58kaHzBOsJis1_jNfw_HiW8fY4TlaLe0jWwUZVThwtcpQXxq-kq7_kjplsetVu2d-3qbGawCEmSM1J5rVIIi7V00gcDireXk3zaj5U2dNzu_-5iSxhBT-Fau_b4Pymr7QphAvOjm9GKJDU9MU52duyZrAoq6uD7wbrgBmgXKhMszPNiczoPFrOSMQU_z7PvNdR3d2JTiX0mMvfaRd5b8fwtt-ITS-mUxalGXYjZfqMbJRW07SRpQ6Kbu10_j1HLKZjGS3MJWdOZa8bn24vlrafBrWzm1Q7GXdOV37z6c2jy2MMYAUqsujIdqo4CBaczBqJ8oiKvtTrG-3D1RI1mzyFBP_4N]--></g></svg>