<svg xmlns="http://www.w3.org/2000/svg" xmlns:xlink="http://www.w3.org/1999/xlink" contentStyleType="text/css" data-diagram-type="DESCRIPTION" height="1792px" preserveAspectRatio="none" style="width:2003px;height:1792px;background:#FFFFFF;" version="1.1" viewBox="0 0 2003 1792" width="2003px" zoomAndPan="magnify"><title>|Color| Type |</title><defs/><g><text fill="#000000" font-family="sans-serif" font-size="14" font-weight="bold" lengthAdjust="spacing" textLength="41.2139" x="912.9378" y="24.9951">Color</text><text fill="#000000" font-family="sans-serif" font-size="14" font-weight="bold" lengthAdjust="spacing" textLength="38.1924" x="959.0257" y="24.9951">Type</text><rect fill="#FFD700" height="16.2969" style="stroke:#FFFFFF00;stroke-width:1;" width="41.2139" x="912.9378" y="28.2969"/><text fill="#000000" font-family="sans-serif" font-size="14" font-weight="bold" lengthAdjust="spacing" textLength="4.874" x="912.9378" y="41.292">&#160;</text><text fill="#000000" font-family="sans-serif" font-size="14" font-weight="bold" lengthAdjust="spacing" textLength="112.3691" x="959.0257" y="41.292">Authenticated</text><rect fill="#FF0000" height="16.2969" style="stroke:#FFFFFF00;stroke-width:1;" width="41.2139" x="912.9378" y="44.5938"/><text fill="#000000" font-family="sans-serif" font-size="14" font-weight="bold" lengthAdjust="spacing" textLength="4.874" x="912.9378" y="57.5889">&#160;</text><text fill="#000000" font-family="sans-serif" font-size="14" font-weight="bold" lengthAdjust="spacing" textLength="105.7861" x="959.0257" y="57.5889">Request path</text><rect fill="#008000" height="16.2969" style="stroke:#FFFFFF00;stroke-width:1;" width="41.2139" x="912.9378" y="60.8906"/><text fill="#000000" font-family="sans-serif" font-size="14" font-weight="bold" lengthAdjust="spacing" textLength="4.874" x="912.9378" y="73.8857">&#160;</text><text fill="#000000" font-family="sans-serif" font-size="14" font-weight="bold" lengthAdjust="spacing" textLength="117.0449" x="959.0257" y="73.8857">Response path</text><line style="stroke:#000000;stroke-width:1;" x1="912.9378" x2="1076.0707" y1="12" y2="12"/><line style="stroke:#000000;stroke-width:1;" x1="912.9378" x2="1076.0707" y1="28.2969" y2="28.2969"/><line style="stroke:#000000;stroke-width:1;" x1="912.9378" x2="1076.0707" y1="44.5938" y2="44.5938"/><line style="stroke:#000000;stroke-width:1;" x1="912.9378" x2="1076.0707" y1="60.8906" y2="60.8906"/><line style="stroke:#000000;stroke-width:1;" x1="912.9378" x2="1076.0707" y1="77.1875" y2="77.1875"/><line style="stroke:#000000;stroke-width:1;" x1="912.9378" x2="912.9378" y1="12" y2="77.1875"/><line style="stroke:#000000;stroke-width:1;" x1="954.1517" x2="954.1517" y1="12" y2="77.1875"/><line style="stroke:#000000;stroke-width:1;" x1="1076.0707" x2="1076.0707" y1="12" y2="77.1875"/><!--cluster Browser--><g id="cluster_Browser"><rect fill="#FFFFFF" fill-opacity="0.00000" height="196" rx="2.5" ry="2.5" style="stroke:#181818;stroke-width:1;" width="411" x="488.5185" y="97.1875"/><rect fill="#FFFFFF" fill-opacity="0.00000" height="10" style="stroke:#181818;stroke-width:1;" width="15" x="879.5185" y="102.1875"/><rect fill="#FFFFFF" fill-opacity="0.00000" height="2" style="stroke:#181818;stroke-width:1;" width="4" x="877.5185" y="104.1875"/><rect fill="#FFFFFF" fill-opacity="0.00000" height="2" style="stroke:#181818;stroke-width:1;" width="4" x="877.5185" y="108.1875"/><text fill="#000000" font-family="sans-serif" font-size="14" font-weight="bold" lengthAdjust="spacing" textLength="64.8594" x="661.5888" y="123.1826">Browser</text></g><!--cluster K8s--><g id="cluster_K8s"><path d="M100.6827,345.8747 C148.3279,286.5893 201.4369,296.8152 233.952,362.0659 C266.1034,291.6519 306.7773,290.9792 358.1345,342.5071 C398.8584,282.4127 453.7579,290.3565 487.9531,349.6086 C521.5808,280.2257 566.8769,278.021 611.253,339.4798 C658.8609,283.7707 698.3941,288.2322 732.5986,352.9818 C759.0431,285.4941 819.5981,283.207 856.3928,342.9078 C902.5466,284.9138 947.1324,271.6537 992.1125,344.1287 C1034.6881,278.9551 1089.7647,291.6263 1123.0736,353.6684 C1146.7117,294.0914 1201.5791,294.8651 1235.965,342.3338 C1282.5185,275.7999 1326.1047,289.2666 1366.8409,348.3926 C1404.9616,279.1611 1460.0528,289.2438 1500.9887,345.3801 C1536.2249,290.7007 1595.4617,288.1345 1628.7279,347.5849 C1667.3448,292.7756 1721.227,298.1046 1747.6118,360.0409 C1788.3853,289.3802 1829.1792,290.4626 1880.5185,349.1875 C1885.47,344.7518 1889.7786,346.7149 1890.9512,352.8996 C1975.9061,400.352 1966.8194,447.6792 1900.5315,504.6781 C1953.2113,548.7352 1961.5202,603.5764 1886.9033,634.2438 C1948.7139,675.4774 1963.3321,719.8565 1896.9379,770.5297 C1964.641,809.1202 1960.0902,868.2728 1891.5328,901.2281 C1957.918,936.9271 1954.0106,989.1065 1899.4852,1032.1499 C1965.0942,1075.8822 1952.9698,1117.5954 1896.0634,1157.9966 C1965.7718,1191.22 1960.7719,1249.6076 1903.8679,1290.2997 C1969.4747,1331.4043 1979.9458,1385.286 1907.513,1429.9925 C1973.8707,1480.0893 1976.8169,1542.1457 1892.5885,1576.9493 C1943.5364,1621.7535 1944.4874,1672.6359 1873.5185,1698.2775 C1877.6857,1696.6989 1880.4298,1698.7372 1880.0679,1703.193 C1847.0248,1754.048 1806.0575,1763.0124 1767.236,1709.4362 C1724.672,1774.9186 1676.6165,1777.1256 1632.8535,1710.6575 C1590.0871,1765.0471 1548.1601,1765.7144 1506.2732,1709.6496 C1476.4077,1767.6778 1421.9451,1768.3214 1381.7582,1721.9609 C1341.2757,1778.1231 1282.9477,1781.2183 1254.0476,1710.3193 C1218.8374,1779.2705 1161.8588,1785.0292 1120.7194,1716.0507 C1080.4643,1773.7635 1030.5743,1779.8241 989.3172,1717.1444 C944.228,1770.8956 899.6473,1768.504 867.6292,1703.7251 C836.3204,1768.6303 777.8846,1757.5342 743.9773,1706.4964 C709.887,1784.5875 645.8712,1782.1582 601.0438,1717.227 C567.6913,1780.1241 518.1793,1771.0734 483.467,1718.6129 C431.216,1774.637 385.7746,1763.3265 346.3468,1703.4428 C315.4036,1759.2552 261.4478,1762.4258 230.1999,1703.7519 C178.2868,1770.5359 119.6203,1755.953 78.5185,1691.2775 C89.1452,1687.7663 94.72,1692.013 94.7742,1703.0726 C24.8904,1666.6291 32.212,1603.6293 93.4438,1565.914 C37.3932,1530.4066 22.3278,1468.469 90.6749,1430.4194 C25.7594,1401.623 14.7093,1332.2926 74.7254,1289.3692 C21.3123,1246.8318 22.9471,1210.8656 76.1803,1169.624 C19.5628,1124.0123 22.3043,1072.039 80.2749,1029.7824 C8.7628,996.2078 9.9384,942.2822 70.8916,899.1899 C18.9852,862.9686 8.7517,805.3677 74.7906,772.7844 C8.4314,731.579 6.5129,665.1926 75.332,624.4807 C20.3584,581.8379 27.4448,519.8993 98.6998,501.179 C8.106,462.492 6,394.9777 85.5185,342.1875 C91.5708,335.4527 98.1978,337.9384 100.6827,345.8747 " fill="#FFFFFF" fill-opacity="0.00000" style="stroke:#181818;stroke-width:1;"/><text fill="#000000" font-family="sans-serif" font-size="14" font-weight="bold" lengthAdjust="spacing" textLength="28.9229" x="965.0571" y="360.1826">K8s</text></g><!--cluster Event Bus--><g id="cluster_Event Bus"><path d="M1113.0185,978.7175 L1846.5185,978.7175 C1851.5185,978.7175 1851.5185,1145.8475 1851.5185,1145.8475 C1851.5185,1145.8475 1851.5185,1312.9775 1846.5185,1312.9775 L1113.0185,1312.9775 C1108.0185,1312.9775 1108.0185,1145.8475 1108.0185,1145.8475 C1108.0185,1145.8475 1108.0185,978.7175 1113.0185,978.7175 " fill="#FFFFFF" fill-opacity="0.00000" style="stroke:#181818;stroke-width:1;"/><path d="M1846.5185,978.7175 C1841.5185,978.7175 1841.5185,1145.8475 1841.5185,1145.8475 C1841.5185,1312.9775 1846.5185,1312.9775 1846.5185,1312.9775 " fill="#FFFFFF" fill-opacity="0.00000" style="stroke:#181818;stroke-width:1;"/><text fill="#000000" font-family="sans-serif" font-size="14" font-weight="bold" lengthAdjust="spacing" textLength="78.6885" x="1440.4243" y="993.7126">Event Bus</text></g><!--cluster RPC1 Set--><g id="cluster_RPC1 Set"><rect fill="#FFFFFF" fill-opacity="0.00000" height="164.3" rx="2.5" ry="2.5" style="stroke:#181818;stroke-width:1;" width="476" x="1286.5185" y="1517.9775"/><path d="M1368.7197,1517.9775 L1368.7197,1527.2744 L1358.7197,1537.2744 L1286.5185,1537.2744 " fill="#FFFFFF" fill-opacity="0.00000" style="stroke:#181818;stroke-width:1;"/><text fill="#000000" font-family="sans-serif" font-size="14" font-weight="bold" lengthAdjust="spacing" textLength="72.2012" x="1289.5185" y="1531.9726">RPC1 Set</text></g><!--cluster RPC1 Pod 1--><g id="cluster_RPC1 Pod 1"><rect fill="#FFFFFF" fill-opacity="0.00000" height="97.3" rx="2.5" ry="2.5" style="stroke:#181818;stroke-width:1;" width="428" x="1310.5185" y="1560.9775"/><rect fill="#FFFFFF" fill-opacity="0.00000" height="10" style="stroke:#181818;stroke-width:1;" width="15" x="1718.5185" y="1565.9775"/><rect fill="#FFFFFF" fill-opacity="0.00000" height="2" style="stroke:#181818;stroke-width:1;" width="4" x="1716.5185" y="1567.9775"/><rect fill="#FFFFFF" fill-opacity="0.00000" height="2" style="stroke:#181818;stroke-width:1;" width="4" x="1716.5185" y="1571.9775"/><text fill="#000000" font-family="sans-serif" font-size="14" font-weight="bold" lengthAdjust="spacing" textLength="90.4463" x="1479.2953" y="1586.9726">RPC1 Pod 1</text></g><!--cluster API Gateway--><g id="cluster_API Gateway"><rect fill="#FFD700" height="634.79" rx="2.5" ry="2.5" style="stroke:#181818;stroke-width:1;" width="995" x="86.5185" y="395.1875"/><rect fill="#FFD700" height="10" style="stroke:#181818;stroke-width:1;" width="15" x="1061.5185" y="400.1875"/><rect fill="#FFD700" height="2" style="stroke:#181818;stroke-width:1;" width="4" x="1059.5185" y="402.1875"/><rect fill="#FFD700" height="2" style="stroke:#181818;stroke-width:1;" width="4" x="1059.5185" y="406.1875"/><text fill="#000000" font-family="sans-serif" font-size="14" font-weight="bold" lengthAdjust="spacing" textLength="99.8115" x="534.1127" y="421.1826">API Gateway</text></g><!--cluster DB--><g id="cluster_DB"><path d="M1097.5185,501.1875 C1097.5185,491.1875 1170.5185,491.1875 1170.5185,491.1875 C1170.5185,491.1875 1243.5185,491.1875 1243.5185,501.1875 L1243.5185,601.4875 C1243.5185,611.4875 1170.5185,611.4875 1170.5185,611.4875 C1170.5185,611.4875 1097.5185,611.4875 1097.5185,601.4875 L1097.5185,501.1875 " fill="#FFFFFF" fill-opacity="0.00000" style="stroke:#181818;stroke-width:1;"/><path d="M1097.5185,501.1875 C1097.5185,511.1875 1170.5185,511.1875 1170.5185,511.1875 C1170.5185,511.1875 1243.5185,511.1875 1243.5185,501.1875 " fill="#FFFFFF" fill-opacity="0.00000" style="stroke:#181818;stroke-width:1;"/><text fill="#000000" font-family="sans-serif" font-size="14" font-weight="bold" lengthAdjust="spacing" textLength="22.292" x="1159.3725" y="526.1826">DB</text></g><rect fill="#F1F1F1" height="121.7813" rx="2.5" ry="2.5" style="stroke:#181818;stroke-width:0.5;" width="327.0068" x="521.0185" y="144.1875"/><text fill="#000000" font-family="sans-serif" font-size="14" lengthAdjust="spacing" textLength="85.4424" x="641.8007" y="159.1826">RPCRequest</text><line style="stroke:#181818;stroke-width:1;" x1="620.9453" x2="620.9453" y1="164.4844" y2="265.9688"/><line style="stroke:#181818;stroke-width:1;" x1="521.0185" x2="848.0253" y1="164.4844" y2="164.4844"/><text fill="#000000" font-family="sans-serif" font-size="14" lengthAdjust="spacing" textLength="89.9268" x="526.0185" y="179.4795">content-type</text><text fill="#000000" font-family="sans-serif" font-size="14" lengthAdjust="spacing" textLength="110.5645" x="625.9453" y="179.4795">application/json</text><line style="stroke:#181818;stroke-width:1;" x1="521.0185" x2="848.0253" y1="184.7813" y2="184.7813"/><text fill="#000000" font-family="sans-serif" font-size="14" lengthAdjust="spacing" textLength="31.5342" x="526.0185" y="199.7764">data</text><line style="stroke:#181818;stroke-width:1;" x1="685.0107" x2="685.0107" y1="184.7813" y2="265.9688"/><line style="stroke:#181818;stroke-width:1;" x1="620.9453" x2="848.0253" y1="184.7813" y2="184.7813"/><text fill="#000000" font-family="sans-serif" font-size="14" lengthAdjust="spacing" textLength="50.9619" x="625.9453" y="199.7764">jsonrpc</text><text fill="#000000" font-family="sans-serif" font-size="14" lengthAdjust="spacing" textLength="22.2646" x="690.0107" y="199.7764">2.0</text><line style="stroke:#181818;stroke-width:1;" x1="620.9453" x2="848.0253" y1="205.0781" y2="205.0781"/><text fill="#000000" font-family="sans-serif" font-size="14" lengthAdjust="spacing" textLength="12.7764" x="625.9453" y="220.0732">id</text><text fill="#000000" font-family="sans-serif" font-size="14" lengthAdjust="spacing" textLength="8.9072" x="690.0107" y="220.0732">1</text><line style="stroke:#181818;stroke-width:1;" x1="620.9453" x2="848.0253" y1="225.375" y2="225.375"/><text fill="#000000" font-family="sans-serif" font-size="14" lengthAdjust="spacing" textLength="54.0654" x="625.9453" y="240.3701">method</text><text fill="#000000" font-family="sans-serif" font-size="14" lengthAdjust="spacing" textLength="51.8574" x="690.0107" y="240.3701">classify</text><line style="stroke:#181818;stroke-width:1;" x1="620.9453" x2="848.0253" y1="245.6719" y2="245.6719"/><text fill="#000000" font-family="sans-serif" font-size="14" lengthAdjust="spacing" textLength="52.7324" x="625.9453" y="260.667">params</text><line style="stroke:#181818;stroke-width:1;" x1="738.6171" x2="738.6171" y1="245.6719" y2="265.9688"/><line style="stroke:#181818;stroke-width:1;" x1="685.0107" x2="848.0253" y1="245.6719" y2="245.6719"/><text fill="#000000" font-family="sans-serif" font-size="14" lengthAdjust="spacing" textLength="43.6064" x="690.0107" y="260.667">image</text><text fill="#000000" font-family="sans-serif" font-size="14" lengthAdjust="spacing" textLength="99.4082" x="743.6171" y="260.667">imageOfApple</text><text fill="#000000" font-family="sans-serif" font-size="14" lengthAdjust="spacing" textLength="109.1699" x="1094.4335" y="957.4157">publish-request</text><rect fill="#FFD700" height="12" style="stroke:#181818;stroke-width:1.5;" width="12" x="1143.0185" y="972.7175"/><text fill="#000000" font-family="sans-serif" font-size="14" lengthAdjust="spacing" textLength="119.54" x="1250.7485" y="957.4157">publish-response</text><rect fill="#008000" height="12" style="stroke:#181818;stroke-width:1.5;" width="12" x="1304.5185" y="972.7175"/><text fill="#000000" font-family="sans-serif" font-size="14" lengthAdjust="spacing" textLength="67.1904" x="1092.4233" y="1331.9726">subscribe</text><rect fill="#F1F1F1" height="12" style="stroke:#181818;stroke-width:1.5;" width="12" x="1120.0185" y="1306.9775"/><rect fill="#F1F1F1" height="142.0781" rx="2.5" ry="2.5" style="stroke:#181818;stroke-width:0.5;" width="286.3955" x="1242.5185" y="1098.9775"/><text fill="#000000" font-family="sans-serif" font-size="14" lengthAdjust="spacing" textLength="57.4971" x="1356.9677" y="1113.9726">Request</text><line style="stroke:#181818;stroke-width:1;" x1="1357.6484" x2="1357.6484" y1="1119.2744" y2="1241.0556"/><line style="stroke:#181818;stroke-width:1;" x1="1242.5185" x2="1528.914" y1="1119.2744" y2="1119.2744"/><text fill="#000000" font-family="sans-serif" font-size="14" lengthAdjust="spacing" textLength="89.9268" x="1247.5185" y="1134.2695">content-type</text><text fill="#000000" font-family="sans-serif" font-size="14" lengthAdjust="spacing" textLength="110.5645" x="1362.6484" y="1134.2695">application/json</text><line style="stroke:#181818;stroke-width:1;" x1="1242.5185" x2="1528.914" y1="1139.5713" y2="1139.5713"/><text fill="#000000" font-family="sans-serif" font-size="14" lengthAdjust="spacing" textLength="105.1299" x="1247.5185" y="1154.5664">ce-specversion</text><text fill="#000000" font-family="sans-serif" font-size="14" lengthAdjust="spacing" textLength="22.2646" x="1362.6484" y="1154.5664">1.0</text><line style="stroke:#181818;stroke-width:1;" x1="1242.5185" x2="1528.914" y1="1159.8681" y2="1159.8681"/><text fill="#000000" font-family="sans-serif" font-size="14" lengthAdjust="spacing" textLength="68.1611" x="1247.5185" y="1174.8632">ce-source</text><text fill="#000000" font-family="sans-serif" font-size="14" lengthAdjust="spacing" textLength="144.0332" x="1362.6484" y="1174.8632">http://curl-command</text><line style="stroke:#181818;stroke-width:1;" x1="1242.5185" x2="1528.914" y1="1180.165" y2="1180.165"/><text fill="#000000" font-family="sans-serif" font-size="14" lengthAdjust="spacing" textLength="52.6367" x="1247.5185" y="1195.1601">ce-type</text><text fill="#000000" font-family="sans-serif" font-size="14" lengthAdjust="spacing" textLength="70.3691" x="1362.6484" y="1195.1601">curl.demo</text><line style="stroke:#181818;stroke-width:1;" x1="1242.5185" x2="1528.914" y1="1200.4619" y2="1200.4619"/><text fill="#000000" font-family="sans-serif" font-size="14" lengthAdjust="spacing" textLength="34.1387" x="1247.5185" y="1215.457">ce-id</text><text fill="#000000" font-family="sans-serif" font-size="14" lengthAdjust="spacing" textLength="56.9365" x="1362.6484" y="1215.457">123-abc</text><line style="stroke:#181818;stroke-width:1;" x1="1242.5185" x2="1528.914" y1="1220.7588" y2="1220.7588"/><text fill="#000000" font-family="sans-serif" font-size="14" lengthAdjust="spacing" textLength="31.5342" x="1247.5185" y="1235.7539">data</text><line style="stroke:#181818;stroke-width:1;" x1="1419.5058" x2="1419.5058" y1="1220.7588" y2="1241.0556"/><line style="stroke:#181818;stroke-width:1;" x1="1357.6484" x2="1528.914" y1="1220.7588" y2="1220.7588"/><text fill="#000000" font-family="sans-serif" font-size="14" lengthAdjust="spacing" textLength="51.8574" x="1362.6484" y="1235.7539">classify</text><text fill="#000000" font-family="sans-serif" font-size="14" lengthAdjust="spacing" textLength="99.4082" x="1424.5058" y="1235.7539">imageOfApple</text><rect fill="#F1F1F1" height="182.6719" rx="2.5" ry="2.5" style="stroke:#181818;stroke-width:0.5;" width="247.1514" x="1580.0185" y="1078.9775"/><text fill="#000000" font-family="sans-serif" font-size="14" lengthAdjust="spacing" textLength="67.8672" x="1669.6606" y="1093.9726">Response</text><line style="stroke:#181818;stroke-width:1;" x1="1695.1484" x2="1695.1484" y1="1099.2744" y2="1261.6494"/><line style="stroke:#181818;stroke-width:1;" x1="1580.0185" x2="1827.1699" y1="1099.2744" y2="1099.2744"/><text fill="#000000" font-family="sans-serif" font-size="14" lengthAdjust="spacing" textLength="89.9268" x="1585.0185" y="1114.2695">content-type</text><text fill="#000000" font-family="sans-serif" font-size="14" lengthAdjust="spacing" textLength="110.5645" x="1700.1484" y="1114.2695">application/json</text><line style="stroke:#181818;stroke-width:1;" x1="1580.0185" x2="1827.1699" y1="1119.5713" y2="1119.5713"/><text fill="#000000" font-family="sans-serif" font-size="14" lengthAdjust="spacing" textLength="105.1299" x="1585.0185" y="1134.5664">ce-specversion</text><text fill="#000000" font-family="sans-serif" font-size="14" lengthAdjust="spacing" textLength="22.2646" x="1700.1484" y="1134.5664">1.0</text><line style="stroke:#181818;stroke-width:1;" x1="1580.0185" x2="1827.1699" y1="1139.8681" y2="1139.8681"/><text fill="#000000" font-family="sans-serif" font-size="14" lengthAdjust="spacing" textLength="68.1611" x="1585.0185" y="1154.8632">ce-source</text><text fill="#000000" font-family="sans-serif" font-size="14" lengthAdjust="spacing" textLength="122.0215" x="1700.1484" y="1154.8632">RPC1 Response &#10067;</text><line style="stroke:#181818;stroke-width:1;" x1="1580.0185" x2="1827.1699" y1="1160.165" y2="1160.165"/><text fill="#000000" font-family="sans-serif" font-size="14" lengthAdjust="spacing" textLength="52.6367" x="1585.0185" y="1175.1601">ce-type</text><text fill="#000000" font-family="sans-serif" font-size="14" lengthAdjust="spacing" textLength="8.4014" x="1700.1484" y="1175.1601">&#10067;</text><line style="stroke:#181818;stroke-width:1;" x1="1580.0185" x2="1827.1699" y1="1180.4619" y2="1180.4619"/><text fill="#000000" font-family="sans-serif" font-size="14" lengthAdjust="spacing" textLength="34.1387" x="1585.0185" y="1195.457">ce-id</text><text fill="#000000" font-family="sans-serif" font-size="14" lengthAdjust="spacing" textLength="56.9365" x="1700.1484" y="1195.457">123-abc</text><line style="stroke:#181818;stroke-width:1;" x1="1580.0185" x2="1827.1699" y1="1200.7588" y2="1200.7588"/><text fill="#000000" font-family="sans-serif" font-size="14" lengthAdjust="spacing" textLength="31.5342" x="1585.0185" y="1215.7539">data</text><line style="stroke:#181818;stroke-width:1;" x1="1767.0204" x2="1767.0204" y1="1200.7588" y2="1261.6494"/><line style="stroke:#181818;stroke-width:1;" x1="1695.1484" x2="1827.1699" y1="1200.7588" y2="1200.7588"/><text fill="#000000" font-family="sans-serif" font-size="14" lengthAdjust="spacing" textLength="61.8721" x="1700.1484" y="1215.7539">category</text><text fill="#000000" font-family="sans-serif" font-size="14" lengthAdjust="spacing" textLength="28.9365" x="1772.0204" y="1215.7539">fruit</text><line style="stroke:#181818;stroke-width:1;" x1="1695.1484" x2="1827.1699" y1="1221.0556" y2="1221.0556"/><text fill="#000000" font-family="sans-serif" font-size="14" lengthAdjust="spacing" textLength="39.7031" x="1700.1484" y="1236.0507">name</text><text fill="#000000" font-family="sans-serif" font-size="14" lengthAdjust="spacing" textLength="38.8555" x="1772.0204" y="1236.0507">apple</text><line style="stroke:#181818;stroke-width:1;" x1="1695.1484" x2="1827.1699" y1="1241.3525" y2="1241.3525"/><text fill="#000000" font-family="sans-serif" font-size="14" lengthAdjust="spacing" textLength="45.6504" x="1700.1484" y="1256.3476">is-safe</text><text fill="#000000" font-family="sans-serif" font-size="14" lengthAdjust="spacing" textLength="24.1924" x="1772.0204" y="1256.3476">yes</text><!--entity RPC1 Request Trigger--><g id="elem_RPC1 Request Trigger"><rect fill="#F1F1F1" height="46.2969" rx="2.5" ry="2.5" style="stroke:#181818;stroke-width:0.5;" width="193.5898" x="1326.7285" y="1595.9775"/><rect fill="#F1F1F1" height="10" style="stroke:#181818;stroke-width:0.5;" width="15" x="1500.3183" y="1600.9775"/><rect fill="#F1F1F1" height="2" style="stroke:#181818;stroke-width:0.5;" width="4" x="1498.3183" y="1602.9775"/><rect fill="#F1F1F1" height="2" style="stroke:#181818;stroke-width:0.5;" width="4" x="1498.3183" y="1606.9775"/><text fill="#000000" font-family="sans-serif" font-size="14" lengthAdjust="spacing" textLength="153.5898" x="1341.7285" y="1628.9726">RPC1 Request Trigger</text></g><!--entity RPC1 Local Server--><g id="elem_RPC1 Local Server"><rect fill="#F1F1F1" height="46.2969" rx="2.5" ry="2.5" style="stroke:#181818;stroke-width:0.5;" width="168.1943" x="1554.4185" y="1595.9775"/><rect fill="#F1F1F1" height="10" style="stroke:#181818;stroke-width:0.5;" width="15" x="1702.6128" y="1600.9775"/><rect fill="#F1F1F1" height="2" style="stroke:#181818;stroke-width:0.5;" width="4" x="1700.6128" y="1602.9775"/><rect fill="#F1F1F1" height="2" style="stroke:#181818;stroke-width:0.5;" width="4" x="1700.6128" y="1606.9775"/><text fill="#000000" font-family="sans-serif" font-size="14" lengthAdjust="spacing" textLength="128.1943" x="1569.4185" y="1628.9726">RPC1 Local Server</text></g><text fill="#000000" font-family="sans-serif" font-size="14" lengthAdjust="spacing" textLength="64.5586" x="857.7392" y="373.8857">HTTPS IO</text><rect fill="#F1F1F1" height="12" style="stroke:#181818;stroke-width:1.5;" width="12" x="884.0185" y="389.1875"/><!--entity Auth--><g id="elem_Auth"><rect fill="#F1F1F1" height="46.2969" rx="2.5" ry="2.5" style="stroke:#181818;stroke-width:0.5;" width="72.8125" x="856.1085" y="545.1875"/><rect fill="#F1F1F1" height="10" style="stroke:#181818;stroke-width:0.5;" width="15" x="908.921" y="550.1875"/><rect fill="#F1F1F1" height="2" style="stroke:#181818;stroke-width:0.5;" width="4" x="906.921" y="552.1875"/><rect fill="#F1F1F1" height="2" style="stroke:#181818;stroke-width:0.5;" width="4" x="906.921" y="556.1875"/><text fill="#000000" font-family="sans-serif" font-size="14" lengthAdjust="spacing" textLength="32.8125" x="871.1085" y="578.1826">Auth</text></g><!--entity RPC Demux--><g id="elem_RPC Demux"><rect fill="#F1F1F1" height="46.2969" rx="2.5" ry="2.5" style="stroke:#181818;stroke-width:0.5;" width="122.585" x="501.2285" y="678.1675"/><rect fill="#F1F1F1" height="10" style="stroke:#181818;stroke-width:0.5;" width="15" x="603.8135" y="683.1675"/><rect fill="#F1F1F1" height="2" style="stroke:#181818;stroke-width:0.5;" width="4" x="601.8135" y="685.1675"/><rect fill="#F1F1F1" height="2" style="stroke:#181818;stroke-width:0.5;" width="4" x="601.8135" y="689.1675"/><text fill="#000000" font-family="sans-serif" font-size="14" lengthAdjust="spacing" textLength="82.585" x="516.2285" y="711.1626">RPC Demux</text></g><!--entity RPC Route /api/rpc1/*--><g id="elem_RPC Route /api/rpc1/*"><rect fill="#F1F1F1" height="46.2969" rx="2.5" ry="2.5" style="stroke:#181818;stroke-width:0.5;" width="191.8672" x="641.5885" y="805.1575"/><rect fill="#F1F1F1" height="10" style="stroke:#181818;stroke-width:0.5;" width="15" x="813.4557" y="810.1575"/><rect fill="#F1F1F1" height="2" style="stroke:#181818;stroke-width:0.5;" width="4" x="811.4557" y="812.1575"/><rect fill="#F1F1F1" height="2" style="stroke:#181818;stroke-width:0.5;" width="4" x="811.4557" y="816.1575"/><text fill="#000000" font-family="sans-serif" font-size="14" lengthAdjust="spacing" textLength="151.8672" x="656.5885" y="838.1526">RPC Route /api/rpc1/*</text></g><!--entity RPC Route /api/rpc../*--><g id="elem_RPC Route /api/rpc../*"><rect fill="#F1F1F1" height="46.2969" rx="2.5" ry="2.5" style="stroke:#181818;stroke-width:0.5;" width="191.8604" x="414.5885" y="805.1575"/><rect fill="#F1F1F1" height="10" style="stroke:#181818;stroke-width:0.5;" width="15" x="586.4488" y="810.1575"/><rect fill="#F1F1F1" height="2" style="stroke:#181818;stroke-width:0.5;" width="4" x="584.4488" y="812.1575"/><rect fill="#F1F1F1" height="2" style="stroke:#181818;stroke-width:0.5;" width="4" x="584.4488" y="816.1575"/><text fill="#000000" font-family="sans-serif" font-size="14" lengthAdjust="spacing" textLength="151.8604" x="429.5885" y="838.1526">RPC Route /api/rpc../*</text></g><!--entity RPC Route /api/rpcn/*--><g id="elem_RPC Route /api/rpcn/*"><rect fill="#F1F1F1" height="46.2969" rx="2.5" ry="2.5" style="stroke:#181818;stroke-width:0.5;" width="191.833" x="868.5985" y="805.1575"/><rect fill="#F1F1F1" height="10" style="stroke:#181818;stroke-width:0.5;" width="15" x="1040.4315" y="810.1575"/><rect fill="#F1F1F1" height="2" style="stroke:#181818;stroke-width:0.5;" width="4" x="1038.4315" y="812.1575"/><rect fill="#F1F1F1" height="2" style="stroke:#181818;stroke-width:0.5;" width="4" x="1038.4315" y="816.1575"/><text fill="#000000" font-family="sans-serif" font-size="14" lengthAdjust="spacing" textLength="151.833" x="883.5985" y="838.1526">RPC Route /api/rpcn/*</text></g><!--entity RPC1 Response Trigger--><g id="elem_RPC1 Response Trigger"><rect fill="#F1F1F1" height="46.2969" rx="2.5" ry="2.5" style="stroke:#181818;stroke-width:0.5;" width="203.96" x="620.5385" y="955.5675"/><rect fill="#F1F1F1" height="10" style="stroke:#181818;stroke-width:0.5;" width="15" x="804.4985" y="960.5675"/><rect fill="#F1F1F1" height="2" style="stroke:#181818;stroke-width:0.5;" width="4" x="802.4985" y="962.5675"/><rect fill="#F1F1F1" height="2" style="stroke:#181818;stroke-width:0.5;" width="4" x="802.4985" y="966.5675"/><text fill="#000000" font-family="sans-serif" font-size="14" lengthAdjust="spacing" textLength="163.96" x="635.5385" y="988.5626">RPC1 Response Trigger</text></g><!--entity RPC.. Response Trigger--><g id="elem_RPC.. Response Trigger"><rect fill="#F1F1F1" height="46.2969" rx="2.5" ry="2.5" style="stroke:#181818;stroke-width:0.5;" width="203.9531" x="102.5385" y="955.5675"/><rect fill="#F1F1F1" height="10" style="stroke:#181818;stroke-width:0.5;" width="15" x="286.4916" y="960.5675"/><rect fill="#F1F1F1" height="2" style="stroke:#181818;stroke-width:0.5;" width="4" x="284.4916" y="962.5675"/><rect fill="#F1F1F1" height="2" style="stroke:#181818;stroke-width:0.5;" width="4" x="284.4916" y="966.5675"/><text fill="#000000" font-family="sans-serif" font-size="14" lengthAdjust="spacing" textLength="163.9531" x="117.5385" y="988.5626">RPC.. Response Trigger</text></g><!--entity RPCN Response Trigger--><g id="elem_RPCN Response Trigger"><rect fill="#F1F1F1" height="46.2969" rx="2.5" ry="2.5" style="stroke:#181818;stroke-width:0.5;" width="205.5254" x="859.7585" y="955.5675"/><rect fill="#F1F1F1" height="10" style="stroke:#181818;stroke-width:0.5;" width="15" x="1045.2839" y="960.5675"/><rect fill="#F1F1F1" height="2" style="stroke:#181818;stroke-width:0.5;" width="4" x="1043.2839" y="962.5675"/><rect fill="#F1F1F1" height="2" style="stroke:#181818;stroke-width:0.5;" width="4" x="1043.2839" y="966.5675"/><text fill="#000000" font-family="sans-serif" font-size="14" lengthAdjust="spacing" textLength="165.5254" x="874.7585" y="988.5626">RPCN Response Trigger</text></g><!--entity Response Mapper--><g id="elem_Response Mapper"><rect fill="#F1F1F1" height="46.2969" rx="2.5" ry="2.5" style="stroke:#181818;stroke-width:0.5;" width="165.1182" x="881.9585" y="678.1675"/><rect fill="#F1F1F1" height="10" style="stroke:#181818;stroke-width:0.5;" width="15" x="1027.0767" y="683.1675"/><rect fill="#F1F1F1" height="2" style="stroke:#181818;stroke-width:0.5;" width="4" x="1025.0767" y="685.1675"/><rect fill="#F1F1F1" height="2" style="stroke:#181818;stroke-width:0.5;" width="4" x="1025.0767" y="689.1675"/><text fill="#000000" font-family="sans-serif" font-size="14" lengthAdjust="spacing" textLength="125.1182" x="896.9585" y="711.1626">Response Mapper</text></g><g id="elem_GMN54"><path d="M658.4685,658.4875 L658.4685,697.3175 L624.1185,701.3175 L658.4685,705.3175 L658.4685,744.1516 A0,0 0 0 0 658.4685,744.1516 L846.5642,744.1516 A0,0 0 0 0 846.5642,744.1516 L846.5642,668.4875 L836.5642,658.4875 L658.4685,658.4875 A0,0 0 0 0 658.4685,658.4875 " fill="#FEFFDD" style="stroke:#181818;stroke-width:0.5;"/><path d="M836.5642,658.4875 L836.5642,668.4875 L846.5642,668.4875 L836.5642,658.4875 " fill="#FEFFDD" style="stroke:#181818;stroke-width:0.5;"/><text fill="#000000" font-family="sans-serif" font-size="13" lengthAdjust="spacing" textLength="118.4473" x="664.4685" y="675.5544">Demuxing implicit</text><text fill="#000000" font-family="sans-serif" font-size="13" lengthAdjust="spacing" textLength="99.6582" x="664.4685" y="690.6872">via Axum route</text><text fill="#000000" font-family="sans-serif" font-size="13" font-weight="bold" lengthAdjust="spacing" textLength="55.0405" x="768.259" y="690.6872">nesting</text><text fill="#000000" font-family="sans-serif" font-size="13" lengthAdjust="spacing" textLength="4.1323" x="823.2995" y="690.6872">.</text><text fill="#000000" font-family="sans-serif" font-size="13" lengthAdjust="spacing" textLength="4.1323" x="664.4685" y="705.82">&#160;</text><text fill="#000000" font-family="sans-serif" font-size="13" lengthAdjust="spacing" textLength="76.2544" x="664.4685" y="720.9528">Axum route</text><text fill="#000000" font-family="sans-serif" font-size="13" font-weight="bold" lengthAdjust="spacing" textLength="64.0098" x="744.8552" y="720.9528">handlers</text><text fill="#000000" font-family="sans-serif" font-size="13" lengthAdjust="spacing" textLength="4.1323" x="808.865" y="720.9528">&#160;</text><text fill="#000000" font-family="sans-serif" font-size="13" lengthAdjust="spacing" textLength="21.3091" x="664.4685" y="736.0856">are</text><text fill="#000000" font-family="sans-serif" font-size="13" font-weight="bold" lengthAdjust="spacing" textLength="126.7754" x="689.9099" y="736.0856">event generators</text></g><g id="elem_GMN57"><path d="M341.9385,943.4475 L341.9385,1013.9787 A0,0 0 0 0 341.9385,1013.9787 L585.0938,1013.9787 A0,0 0 0 0 585.0938,1013.9787 L585.0938,953.4475 L575.0938,943.4475 L478.4885,943.4475 L503.3785,851.8375 L470.4885,943.4475 L341.9385,943.4475 A0,0 0 0 0 341.9385,943.4475 " fill="#FEFFDD" style="stroke:#181818;stroke-width:0.5;"/><path d="M575.0938,943.4475 L575.0938,953.4475 L585.0938,953.4475 L575.0938,943.4475 " fill="#FEFFDD" style="stroke:#181818;stroke-width:0.5;"/><text fill="#000000" font-family="sans-serif" font-size="13" lengthAdjust="spacing" textLength="74.1152" x="347.9385" y="960.5144">Send Event</text><text fill="#000000" font-family="sans-serif" font-size="13" lengthAdjust="spacing" textLength="187.167" x="347.9385" y="975.6472">&#10067; send placeholder response</text><text fill="#000000" font-family="sans-serif" font-size="13" lengthAdjust="spacing" textLength="222.1553" x="347.9385" y="990.78">&#8986; Async wait for Response Trigger</text><text fill="#000000" font-family="sans-serif" font-size="13" lengthAdjust="spacing" textLength="114.918" x="347.9385" y="1005.9128">&#10004;&#65039; Send Response</text></g><!--entity Auth Tables--><g id="elem_Auth Tables"><path d="M1116.4785,541.1875 L1157.4785,541.1875 A3.75,3.75 0 0 1 1159.9785,543.6875 L1166.9785,562.1875 L1224.5556,562.1875 A2.5,2.5 0 0 1 1227.0556,564.6875 L1227.0556,592.9844 A2.5,2.5 0 0 1 1224.5556,595.4844 L1116.4785,595.4844 A2.5,2.5 0 0 1 1113.9785,592.9844 L1113.9785,543.6875 A2.5,2.5 0 0 1 1116.4785,541.1875 " fill="#F1F1F1" style="stroke:#181818;stroke-width:0.5;"/><line style="stroke:#181818;stroke-width:0.5;" x1="1113.9785" x2="1166.9785" y1="562.1875" y2="562.1875"/><text fill="#000000" font-family="sans-serif" font-size="14" lengthAdjust="spacing" textLength="83.0771" x="1123.9785" y="582.1826">Auth Tables</text></g><!--link subscribe to RPC1 Request Trigger--><g id="link_subscribe_RPC1 Request Trigger"><path d="M1131.1885,1318.7575 C1162.1785,1350.4975 1334.8464,1527.3249 1397.4064,1591.3849 " fill="#FFFFFF" fill-opacity="0.00000" id="subscribe-to-RPC1 Request Trigger" style="stroke:#FF0000;stroke-width:1;"/><polygon fill="#FF0000" points="1401.5985,1595.6775,1398.1721,1586.4439,1398.1051,1592.1003,1392.4486,1592.0333,1401.5985,1595.6775" style="stroke:#FF0000;stroke-width:1;"/></g><!--link RPC1 Request Trigger to RPC1 Local Server--><g id="link_RPC1 Request Trigger_RPC1 Local Server"><path d="M1520.5185,1619.1275 C1531.7385,1619.1275 1536.9485,1619.1275 1548.1685,1619.1275 " fill="#FFFFFF" fill-opacity="0.00000" id="RPC1 Request Trigger-to-RPC1 Local Server" style="stroke:#FF0000;stroke-width:1;"/><polygon fill="#FF0000" points="1554.1685,1619.1275,1545.1685,1615.1275,1549.1685,1619.1275,1545.1685,1623.1275,1554.1685,1619.1275" style="stroke:#FF0000;stroke-width:1;"/></g><!--link RPC1 Local Server to publish-response--><g id="link_RPC1 Local Server_publish-response"><path d="M1661.6185,1595.7275 C1741.8685,1515.2675 1996.0085,1236.6475 1851.5185,1066.9775 C1777.8085,980.4275 1376.1984,979.3996 1322.3884,979.6496 " fill="#FFFFFF" fill-opacity="0.00000" id="RPC1 Local Server-to-publish-response" style="stroke:#008000;stroke-width:1;"/><polygon fill="#008000" points="1316.3885,979.6775,1325.407,983.6356,1321.3884,979.6543,1325.3698,975.6357,1316.3885,979.6775" style="stroke:#008000;stroke-width:1;"/><text fill="#000000" font-family="sans-serif" font-size="13" lengthAdjust="spacing" textLength="133.6372" x="1843.5185" y="1374.0444">rpc1 response event</text></g><!--link Auth to RPC Demux--><g id="link_Auth_RPC Demux"><path d="M874.6585,591.8175 C865.1185,602.1275 852.4685,613.3975 838.5185,619.4875 C816.8685,628.9475 755.6685,622.7875 732.5185,627.4875 C690.2285,636.0675 680.1185,641.3475 640.5185,658.4875 C627.5485,664.1075 619.0934,668.2283 606.8434,674.8683 " fill="#FFFFFF" fill-opacity="0.00000" id="Auth-to-RPC Demux" style="stroke:#FF0000;stroke-width:1;"/><polygon fill="#FF0000" points="601.5685,677.7275,611.387,676.9553,605.9643,675.3448,607.5747,669.922,601.5685,677.7275" style="stroke:#FF0000;stroke-width:1;"/></g><!--link Auth to HTTPS IO--><g id="link_Auth_HTTPS IO"><path d="M879.9785,545.0175 C869.7385,527.5275 854.4185,502.9275 838.5185,483.1875 C835.3685,479.2775 832.4385,479.8375 830.5185,475.1875 C825.0785,462.0475 824.2885,455.9775 830.5185,443.1875 C841.8685,419.8775 865.5294,407.1529 878.5694,401.3329 " fill="#FFFFFF" fill-opacity="0.00000" id="Auth-to-HTTPS IO" style="stroke:#008000;stroke-width:1;"/><polygon fill="#008000" points="884.0485,398.8875,874.1996,398.9029,879.4826,400.9253,877.4602,406.2083,884.0485,398.8875" style="stroke:#008000;stroke-width:1;"/><text fill="#000000" font-family="sans-serif" font-size="13" font-weight="bold" lengthAdjust="spacing" textLength="77.4414" x="844.6867" y="456.2544">If not auth</text><text fill="#000000" font-family="sans-serif" font-size="13" lengthAdjust="spacing" textLength="4.1323" x="922.1281" y="456.2544">&#160;</text><text fill="#000000" font-family="sans-serif" font-size="13" lengthAdjust="spacing" textLength="103.7778" x="835.6508" y="471.3872">redirect to login</text></g><!--link HTTPS IO to Auth--><g id="link_HTTPS IO_Auth"><path d="M895.9085,398.9175 C907.2885,405.0175 933.5285,420.9875 943.5185,443.1875 C949.3485,456.1575 949.9685,462.5175 943.5185,475.1875 C940.7785,480.5775 936.3785,478.5375 932.5185,483.1875 C917.2285,501.6075 908.2954,521.2175 901.7554,539.2375 " fill="#FFFFFF" fill-opacity="0.00000" id="HTTPS IO-to-Auth" style="stroke:#FF0000;stroke-width:1;"/><polygon fill="#FF0000" points="899.7085,544.8775,906.5389,537.7821,901.4143,540.1775,899.0189,535.0528,899.7085,544.8775" style="stroke:#FF0000;stroke-width:1;"/></g><!--link RPC Demux to RPC Route /api/rpc1/*--><g id="link_RPC Demux_RPC Route /api/rpc1/*"><path d="M594.2085,724.9575 C625.9285,747.6075 669.5459,778.7604 701.1759,801.3504 " fill="#FFFFFF" fill-opacity="0.00000" id="RPC Demux-to-RPC Route /api/rpc1/*" style="stroke:#FF0000;stroke-width:1;"/><polygon fill="#FF0000" points="706.0585,804.8375,701.0593,796.3517,701.9897,801.9316,696.4098,802.8619,706.0585,804.8375" style="stroke:#FF0000;stroke-width:1;"/></g><!--link RPC Demux to RPC Route /api/rpc../*--><g id="link_RPC Demux_RPC Route /api/rpc../*"><path d="M553.0985,724.9575 C543.6785,747.6075 531.5736,776.708 522.1736,799.298 " fill="#FFFFFF" fill-opacity="0.00000" id="RPC Demux-to-RPC Route /api/rpc../*" style="stroke:#FF0000;stroke-width:1;"/><polygon fill="#FF0000" points="519.8685,804.8375,527.0191,798.0649,521.7894,800.2212,519.6331,794.9915,519.8685,804.8375" style="stroke:#FF0000;stroke-width:1;"/></g><!--link RPC Demux to RPC Route /api/rpcn/*--><g id="link_RPC Demux_RPC Route /api/rpcn/*"><path d="M600.1285,724.8575 C612.6685,731.7175 626.9185,738.8475 640.5185,744.1575 C714.9185,773.1575 796.9911,793.733 862.4711,807.733 " fill="#FFFFFF" fill-opacity="0.00000" id="RPC Demux-to-RPC Route /api/rpcn/*" style="stroke:#FF0000;stroke-width:1;"/><polygon fill="#FF0000" points="868.3385,808.9875,860.3737,803.1942,863.449,807.9421,858.7011,811.0174,868.3385,808.9875" style="stroke:#FF0000;stroke-width:1;"/></g><!--link RPC Route /api/rpc1/* to publish-request--><g id="link_RPC Route /api/rpc1/*_publish-request"><path d="M833.8785,848.2475 C839.8485,849.3475 845.7585,850.4275 851.5185,851.4475 C933.9585,866.1075 962.9685,843.3275 1037.5185,881.4475 C1055.4285,890.6075 1054.5485,900.0175 1069.5185,913.4475 C1095.7785,936.9975 1124.4781,958.9681 1138.3081,969.3381 " fill="#FFFFFF" fill-opacity="0.00000" id="RPC Route /api/rpc1/*-to-publish-request" style="stroke:#FF0000;stroke-width:1;"/><polygon fill="#FF0000" points="1143.1085,972.9375,1138.3075,964.3381,1139.1081,969.938,1133.5082,970.7386,1143.1085,972.9375" style="stroke:#FF0000;stroke-width:1;"/><text fill="#000000" font-family="sans-serif" font-size="13" lengthAdjust="spacing" textLength="46.5664" x="1086.5209" y="894.5144">Publish</text><text fill="#000000" font-family="sans-serif" font-size="13" font-weight="bold" lengthAdjust="spacing" textLength="78.5713" x="1070.5185" y="909.6472">rpc1 event</text></g><!--link subscribe to RPC1 Response Trigger--><g id="link_subscribe_RPC1 Response Trigger"><path d="M1120.2585,1311.5575 C1099.2485,1309.8875 1029.8485,1302.3275 982.5185,1272.9775 C864.5485,1199.8375 772.627,1062.1512 738.877,1007.1612 " fill="#FFFFFF" fill-opacity="0.00000" id="subscribe-to-RPC1 Response Trigger" style="stroke:#008000;stroke-width:1;"/><polygon fill="#008000" points="735.7385,1002.0475,737.0371,1011.8104,738.3539,1006.3089,743.8554,1007.6257,735.7385,1002.0475" style="stroke:#008000;stroke-width:1;"/></g><!--reverse link RPC Route /api/rpc1/* to RPC1 Response Trigger--><g id="link_RPC Route /api/rpc1/*_RPC1 Response Trigger"><path d="M734.6364,857.8072 C731.8064,885.8672 727.5885,927.5175 724.7685,955.4475 " fill="#FFFFFF" fill-opacity="0.00000" id="RPC Route /api/rpc1/*-backto-RPC1 Response Trigger" style="stroke:#008000;stroke-width:1;"/><polygon fill="#008000" points="735.2385,851.8375,730.3556,860.3907,734.7368,856.8123,738.3152,861.1935,735.2385,851.8375" style="stroke:#008000;stroke-width:1;"/></g><!--link RPC Route /api/rpc../* to publish-request--><g id="link_RPC Route /api/rpc../*_publish-request"><path d="M606.6485,848.1775 C766.3985,879.5975 1070.2685,939.5675 1081.5185,943.4475 C1105.2685,951.6375 1126.0839,963.4433 1137.8939,970.5833 " fill="#FFFFFF" fill-opacity="0.00000" id="RPC Route /api/rpc../*-to-publish-request" style="stroke:#FF0000;stroke-width:1;"/><polygon fill="#FF0000" points="1143.0285,973.6875,1137.3961,965.6081,1138.7497,971.1007,1133.2572,972.4542,1143.0285,973.6875" style="stroke:#FF0000;stroke-width:1;"/><text fill="#000000" font-family="sans-serif" font-size="13" lengthAdjust="spacing" textLength="46.5664" x="938.9367" y="894.5144">Publish</text><text fill="#000000" font-family="sans-serif" font-size="13" font-weight="bold" lengthAdjust="spacing" textLength="79.4028" x="922.5185" y="909.6472">rpc.. event</text></g><!--link subscribe to RPC.. Response Trigger--><g id="link_subscribe_RPC.. Response Trigger"><path d="M1120.0385,1312.1375 C1084.2585,1312.8475 907.4385,1314.0375 771.5185,1272.9775 C554.0385,1207.2775 326.2569,1062.0964 242.1469,1005.5164 " fill="#FFFFFF" fill-opacity="0.00000" id="subscribe-to-RPC.. Response Trigger" style="stroke:#008000;stroke-width:1;"/><polygon fill="#008000" points="237.1685,1002.1675,242.4035,1010.5098,241.3172,1004.9583,246.8687,1003.872,237.1685,1002.1675" style="stroke:#008000;stroke-width:1;"/></g><!--reverse link RPC Route /api/rpc../* to RPC.. Response Trigger--><g id="link_RPC Route /api/rpc../*_RPC.. Response Trigger"><path d="M458.6501,854.4561 C401.0501,882.3961 308.8585,927.1075 251.1785,955.0875 " fill="#FFFFFF" fill-opacity="0.00000" id="RPC Route /api/rpc../*-backto-RPC.. Response Trigger" style="stroke:#008000;stroke-width:1;"/><polygon fill="#008000" points="464.0485,851.8375,454.2051,852.1665,459.5498,854.0197,457.6966,859.3644,464.0485,851.8375" style="stroke:#008000;stroke-width:1;"/></g><!--link RPC Route /api/rpcn/* to publish-request--><g id="link_RPC Route /api/rpcn/*_publish-request"><path d="M1060.9185,844.1375 C1102.7385,852.7375 1145.0185,865.1175 1157.5185,881.4475 C1179.3385,909.9475 1161.6894,952.6606 1154.4594,967.6906 " fill="#FFFFFF" fill-opacity="0.00000" id="RPC Route /api/rpcn/*-to-publish-request" style="stroke:#FF0000;stroke-width:1;"/><polygon fill="#FF0000" points="1151.8585,973.0975,1159.3645,966.721,1154.0259,968.5917,1152.1553,963.2531,1151.8585,973.0975" style="stroke:#FF0000;stroke-width:1;"/><text fill="#000000" font-family="sans-serif" font-size="13" lengthAdjust="spacing" textLength="46.5664" x="1183.6257" y="894.5144">Publish</text><text fill="#000000" font-family="sans-serif" font-size="13" font-weight="bold" lengthAdjust="spacing" textLength="78.7808" x="1167.5185" y="909.6472">rpcn event</text></g><!--link subscribe to RPCN Response Trigger--><g id="link_subscribe_RPCN Response Trigger"><path d="M1120.8585,1307.1875 C1112.9885,1300.2775 1098.6785,1286.8375 1089.5185,1272.9775 C1028.1885,1180.1675 986.8133,1058.5759 970.9733,1007.7359 " fill="#FFFFFF" fill-opacity="0.00000" id="subscribe-to-RPCN Response Trigger" style="stroke:#008000;stroke-width:1;"/><polygon fill="#008000" points="969.1885,1002.0075,968.0467,1011.79,970.6758,1006.7812,975.6846,1009.4103,969.1885,1002.0075" style="stroke:#008000;stroke-width:1;"/></g><!--reverse link RPC Route /api/rpcn/* to RPCN Response Trigger--><g id="link_RPC Route /api/rpcn/*_RPCN Response Trigger"><path d="M934.8549,856.2319 C927.0949,864.6619 923.5985,870.4675 919.5185,881.4475 C909.9485,907.1875 926.3585,935.8075 941.5885,955.1075 " fill="#FFFFFF" fill-opacity="0.00000" id="RPC Route /api/rpcn/*-backto-RPCN Response Trigger" style="stroke:#008000;stroke-width:1;"/><polygon fill="#008000" points="938.9185,851.8175,929.8802,855.7301,935.5322,855.4962,935.7661,861.1482,938.9185,851.8175" style="stroke:#008000;stroke-width:1;"/></g><!--reverse link Response Mapper to RPC Route /api/rpc1/*--><g id="link_Response Mapper_RPC Route /api/rpc1/*"><path d="M918.1524,727.8513 C877.0124,750.5013 819.3485,782.2475 778.3185,804.8375 " fill="#FFFFFF" fill-opacity="0.00000" id="Response Mapper-backto-RPC Route /api/rpc1/*" style="stroke:#008000;stroke-width:1;"/><polygon fill="#008000" points="923.4085,724.9575,913.5952,725.7941,919.0284,727.369,917.4536,732.8022,923.4085,724.9575" style="stroke:#008000;stroke-width:1;"/></g><!--reverse link Response Mapper to RPC Route /api/rpc../*--><g id="link_Response Mapper_RPC Route /api/rpc../*"><path d="M909.5058,727.2726 C893.5858,734.0326 881.2585,738.7275 864.5185,744.1575 C817.2985,759.4575 694.5185,787.3375 606.8285,806.5575 " fill="#FFFFFF" fill-opacity="0.00000" id="Response Mapper-backto-RPC Route /api/rpc../*" style="stroke:#008000;stroke-width:1;"/><polygon fill="#008000" points="915.0285,724.9275,905.181,724.7633,910.4262,726.8817,908.3078,732.1269,915.0285,724.9275" style="stroke:#008000;stroke-width:1;"/></g><!--reverse link Response Mapper to RPC Route /api/rpcn/*--><g id="link_Response Mapper_RPC Route /api/rpcn/*"><path d="M964.5185,730.9575 C964.5185,753.6075 964.5185,782.2475 964.5185,804.8375 " fill="#FFFFFF" fill-opacity="0.00000" id="Response Mapper-backto-RPC Route /api/rpcn/*" style="stroke:#008000;stroke-width:1;"/><polygon fill="#008000" points="964.5185,724.9575,960.5185,733.9575,964.5185,729.9575,968.5185,733.9575,964.5185,724.9575" style="stroke:#008000;stroke-width:1;"/></g><!--reverse link HTTPS IO to Response Mapper--><g id="link_HTTPS IO_Response Mapper"><path d="M901.3097,400.3751 C914.0897,405.4851 941.3285,418.3575 954.5185,443.1875 C995.7885,520.9175 979.4685,631.2875 969.7485,678.0275 " fill="#FFFFFF" fill-opacity="0.00000" id="HTTPS IO-backto-Response Mapper" style="stroke:#008000;stroke-width:1;"/><polygon fill="#008000" points="895.7385,398.1475,902.6102,405.203,900.3811,400.0038,905.5803,397.7748,895.7385,398.1475" style="stroke:#008000;stroke-width:1;"/></g><!--link Browser to HTTPS IO--><g id="link_Browser_HTTPS IO"><path d="M891.0527,293.4703 C891.0509,293.7966 891.0492,294.123 891.0475,294.4496 C891.044,295.1026 891.0406,295.756 891.0371,296.4097 C891.0233,299.0242 891.0094,301.6424 890.9956,304.2561 C890.968,309.4835 890.9405,314.6932 890.9134,319.8207 C890.8593,330.0755 890.8069,340.0014 890.7591,349.0822 C890.6635,367.2438 890.6169,376.0251 890.5794,383.2976 " fill="#FFFFFF" fill-opacity="0.00000" id="Browser-to-HTTPS IO" style="stroke:#FF0000;stroke-width:1;"/><polygon fill="#FF0000" points="890.5485,389.2975,894.5948,380.3182,890.5743,384.2976,886.595,380.277,890.5485,389.2975" style="stroke:#FF0000;stroke-width:1;"/></g><!--link HTTPS IO to Browser--><g id="link_HTTPS IO_Browser"><path d="M890.5485,389.2975 C890.586,382.025 890.6635,367.2438 890.7591,349.0822 C890.8069,340.0014 890.8593,330.0755 890.9134,319.8207 C890.9405,314.6932 890.968,309.4835 890.9956,304.2561 C891.0094,301.6424 891.0233,299.0242 891.0371,296.4097 C891.0406,295.756 891.044,295.1026 891.0475,294.4496 C891.0492,294.123 891.0192,299.7965 891.0209,299.4702 " fill="#FFFFFF" fill-opacity="0.00000" id="HTTPS IO-to-Browser" style="stroke:#008000;stroke-width:1;"/><polygon fill="#008000" points="891.0527,293.4703,887.0051,302.449,891.0262,298.4702,895.005,302.4913,891.0527,293.4703" style="stroke:#008000;stroke-width:1;"/></g><!--link Auth to Auth Tables--><g id="link_Auth_Auth Tables"><path d="M929.1685,568.3375 C990.6085,568.3375 1046.0385,568.3375 1107.4785,568.3375 " fill="#FFFFFF" fill-opacity="0.00000" id="Auth-to-Auth Tables" style="stroke:#181818;stroke-width:1;"/><polygon fill="#181818" points="1113.4785,568.3375,1104.4785,564.3375,1108.4785,568.3375,1104.4785,572.3375,1113.4785,568.3375" style="stroke:#181818;stroke-width:1;"/></g><!--SRC=[lLVDZjis43wldsB0t8J8hjDBiIWMS7wGBjecXjUtJG-qHDai958bgTqOsNs30Zsqfw9zZpvFNo2la27rGqcMbCqUeeCXSRvlE7-SeGqtAGE06S3T2vbATGVROyxWpYvy_-IrJEEBErWLvi24uH4rBAv46sOb6_PRmRI1d9f3pL6C2IVIkHIQLJ8cOZ1sjzaiaXbAK24yL_9MCmKVa0hmgvO2DkiNjT9ojNv898L1KcZGG78EXEPvQatYKYmibJo5aQUh9wQ64ZZlgNSYgqRbaTN-RFuDUJexEpjp0XxZsj9_PymSf5qZKKgrvicn1SwfefacTeSp-n2UqRqpsRsyJLPeEICr_dxItFkPVxl7sAMoY87y-9qcyA41knyCMi60lBfnaIqieE7cKXakqBHYbt9z25KPOW8knHEmCeSMPzFQ0Sh2W2vsEb9ynsOdnfVPV6mgUtWMwfn5DqnfX5Z6qgNd12GB5JcD1sFoyyKYAbGQOhrbLCG3-7f_2vl7B9C369TwidpsRKXtKLy-KKjDOPpaVIoz_T1Lv-UhnmwFuD9l__-_Vqv4RbZwi9XDrdsf2XlENggZXPD45Tpqb3cKe1bp2EhYEu3WEjGqSGOVcHxDG6D4bOi4pp6hud753F4cDnpVoqhOMiQm95tVEjir9mP2V2xWkefsUKwsYk_tJFq2jhzsU2EuHiDFCg8fMgbk9kXT4797Jpg64nlX4kfrOBQjT4FbmzLypNenMQqluJKcyPOUgrxJQqf0VjXkrrTm-PRu-h-s0mVjgvo3bomhtlUSQc6y2czy45mc8AG1Yh0WW7S2NOcvOf418o6LU-wxMNkJPjCDzZS62vhpXOt48kWRy7dIVFuObcX8NTQ0GLR3K5D7yZcio-Lt8WXSAbq6CHIpWLBqTLYbsnTYj_6FmS8YdmfSgMJIeJ9OORSe9noQpskFnXr2p8Cy6iIDkbIbjV9fmYNnXJaId_VepSCSUlCb_eYMEzsJF5bxbRfwdv-n-uvOCvpfH_F50-WjVXzHCa-QXgTWss20KJiOa4dxnFgEwhwvs0FFxFJblZF23QUmUbzae9pHGI0mtmWDWdbh4lYt3lQ0zvGK9tNxc09LLkHA0_PCC4MDj906OU_MrkYU2pjfZCmQ7mQIuFUuiZfUTNgydVoWxNgUqeWTi7dZLRqU22tOxt_3IXz51BUK6qYaEYc-5lYVlpx-zqUvtQQlgl73JsFtQcyCEuhgoCldxLjjKff4x2Y0BTsbh7Ff7HXIzWfzNVthE1qUjkUslbr_Ri1LbVJbvHXor7eaNNGj-WG0]--></g></svg>