<svg xmlns="http://www.w3.org/2000/svg" xmlns:xlink="http://www.w3.org/1999/xlink" contentStyleType="text/css" data-diagram-type="MINDMAP" height="1314px" preserveAspectRatio="none" style="width:822px;height:1314px;background:#FFFFFF;" version="1.1" viewBox="0 0 822 1314" width="822px" zoomAndPan="magnify"><defs/><g><rect fill="#F1F1F1" height="36.2969" rx="12.5" ry="12.5" style="stroke:#181818;stroke-width:1.5;" width="51.3838" x="10" y="505.4727"/><text fill="#000000" font-family="sans-serif" font-size="14" lengthAdjust="spacing" textLength="31.3838" x="20" y="528.4678">Rust</text><rect fill="#F1F1F1" height="36.2969" rx="12.5" ry="12.5" style="stroke:#181818;stroke-width:1.5;" width="84.7637" x="111.3838" y="20"/><text fill="#000000" font-family="sans-serif" font-size="14" lengthAdjust="spacing" textLength="60.3135" x="121.3838" y="42.9951">Function</text><rect fill="#F1F1F1" height="36.2969" rx="12.5" ry="12.5" style="stroke:#181818;stroke-width:1.5;" width="304.6006" x="246.1475" y="20"/><text fill="#000000" font-family="sans-serif" font-size="14" lengthAdjust="spacing" textLength="82.0654" x="256.1475" y="42.9951">args can be</text><text fill="#000000" font-family="sans-serif" font-size="14" font-weight="bold" lengthAdjust="spacing" textLength="102.792" x="342.6631" y="42.9951">destructured</text><text fill="#000000" font-family="sans-serif" font-size="14" lengthAdjust="spacing" textLength="90.8428" x="449.9053" y="42.9951">from structs!</text><text fill="#000000" font-family="sans-serif" font-size="14" lengthAdjust="spacing" textLength="205.3447" x="603.748" y="33.8467">func ( TupleStructName(a,b))</text><path d="M550.748,38.1484 L560.748,38.1484 C575.748,38.1484 575.748,29 590.748,29 L600.748,29 " fill="#FFFFFF" fill-opacity="0.00000" style="stroke:#181818;stroke-width:1;"/><text fill="#000000" font-family="sans-serif" font-size="14" lengthAdjust="spacing" textLength="206.7529" x="603.748" y="52.1436">func ( FieldStructName{a,b})</text><path d="M550.748,38.1484 L560.748,38.1484 C575.748,38.1484 575.748,47.2969 590.748,47.2969 L600.748,47.2969 " fill="#FFFFFF" fill-opacity="0.00000" style="stroke:#181818;stroke-width:1;"/><path d="M196.1475,38.1484 L206.1475,38.1484 C221.1475,38.1484 221.1475,38.1484 236.1475,38.1484 L246.1475,38.1484 " fill="#FFFFFF" fill-opacity="0.00000" style="stroke:#181818;stroke-width:1;"/><path d="M61.3838,523.6211 L71.3838,523.6211 C86.3838,523.6211 86.3838,38.1484 101.3838,38.1484 L111.3838,38.1484 " fill="#FFFFFF" fill-opacity="0.00000" style="stroke:#181818;stroke-width:1;"/><rect fill="#F1F1F1" height="36.2969" rx="12.5" ry="12.5" style="stroke:#181818;stroke-width:1.5;" width="61.6309" x="111.3838" y="89.668"/><text fill="#000000" font-family="sans-serif" font-size="14" lengthAdjust="spacing" textLength="41.6309" x="121.3838" y="112.6631">Types</text><text fill="#000000" font-family="sans-serif" font-size="14" font-weight="bold" lengthAdjust="spacing" textLength="12.7969" x="226.0146" y="80.292">()</text><text fill="#000000" font-family="sans-serif" font-size="14" lengthAdjust="spacing" textLength="45.2607" x="243.2617" y="80.292">is void</text><path d="M173.0146,107.8164 L183.0146,107.8164 C198.0146,107.8164 198.0146,75.4453 213.0146,75.4453 L223.0146,75.4453 " fill="#FFFFFF" fill-opacity="0.00000" style="stroke:#181818;stroke-width:1;"/><rect fill="#F1F1F1" height="36.2969" rx="12.5" ry="12.5" style="stroke:#181818;stroke-width:1.5;" width="67.291" x="223.0146" y="94.5938"/><text fill="#000000" font-family="sans-serif" font-size="14" lengthAdjust="spacing" textLength="47.291" x="233.0146" y="117.5889">enums</text><text fill="#000000" font-family="sans-serif" font-size="14" lengthAdjust="spacing" textLength="112.3281" x="343.3057" y="90.1436">items are called</text><text fill="#000000" font-family="sans-serif" font-size="14" font-weight="bold" lengthAdjust="spacing" textLength="66.4248" x="460.084" y="90.1436">Variants</text><path d="M290.3057,112.7422 L300.3057,112.7422 C315.3057,112.7422 315.3057,85.2969 330.3057,85.2969 L340.3057,85.2969 " fill="#FFFFFF" fill-opacity="0.00000" style="stroke:#181818;stroke-width:1;"/><text fill="#000000" font-family="sans-serif" font-size="14" lengthAdjust="spacing" textLength="160.6377" x="343.3057" y="108.4404">variants can be structs</text><path d="M290.3057,112.7422 L300.3057,112.7422 C315.3057,112.7422 315.3057,103.5938 330.3057,103.5938 L340.3057,103.5938 " fill="#FFFFFF" fill-opacity="0.00000" style="stroke:#181818;stroke-width:1;"/><text fill="#000000" font-family="sans-serif" font-size="14" lengthAdjust="spacing" textLength="363.6719" x="343.3057" y="126.7373">have to be CamelCased! unless specially annotated</text><path d="M290.3057,112.7422 L300.3057,112.7422 C315.3057,112.7422 315.3057,121.8906 330.3057,121.8906 L340.3057,121.8906 " fill="#FFFFFF" fill-opacity="0.00000" style="stroke:#181818;stroke-width:1;"/><text fill="#000000" font-family="sans-serif" font-size="14" font-weight="bold" lengthAdjust="spacing" textLength="255.3428" x="343.3057" y="145.0342">#[allow(non_camel_case_types)]</text><path d="M290.3057,112.7422 L300.3057,112.7422 C315.3057,112.7422 315.3057,140.1875 330.3057,140.1875 L340.3057,140.1875 " fill="#FFFFFF" fill-opacity="0.00000" style="stroke:#181818;stroke-width:1;"/><path d="M173.0146,107.8164 L183.0146,107.8164 C198.0146,107.8164 198.0146,112.7422 213.0146,112.7422 L223.0146,112.7422 " fill="#FFFFFF" fill-opacity="0.00000" style="stroke:#181818;stroke-width:1;"/><path d="M61.3838,523.6211 L71.3838,523.6211 C86.3838,523.6211 86.3838,107.8164 101.3838,107.8164 L111.3838,107.8164 " fill="#FFFFFF" fill-opacity="0.00000" style="stroke:#181818;stroke-width:1;"/><rect fill="#F1F1F1" height="36.2969" rx="12.5" ry="12.5" style="stroke:#181818;stroke-width:1.5;" width="35.1484" x="111.3838" y="191.9297"/><text fill="#000000" font-family="sans-serif" font-size="14" lengthAdjust="spacing" textLength="15.1484" x="121.3838" y="214.9248">IO</text><rect fill="#F1F1F1" height="101.4844" rx="12.5" ry="12.5" style="stroke:#181818;stroke-width:1.5;" width="464.6436" x="196.5322" y="159.3359"/><text fill="#000000" font-family="sans-serif" font-size="14" lengthAdjust="spacing" textLength="4.4502" x="206.5322" y="182.3311">&#160;</text><text fill="#000000" font-family="sans-serif" font-size="14" font-weight="bold" lengthAdjust="spacing" textLength="19.9336" x="210.9824" y="182.3311">{}</text><text fill="#000000" font-family="sans-serif" font-size="14" lengthAdjust="spacing" textLength="222.667" x="230.916" y="182.3311">, the format specifier, is of form</text><text fill="#000000" font-family="sans-serif" font-size="14" font-weight="bold" lengthAdjust="spacing" textLength="122.8076" x="206.5322" y="198.6279">{ obj : format }</text><text fill="#000000" font-family="sans-serif" font-size="14" lengthAdjust="spacing" textLength="5.0518" x="210.9824" y="214.9248">-</text><text fill="#000000" font-family="sans-serif" font-size="14" font-style="italic" lengthAdjust="spacing" textLength="58.6865" x="220.4844" y="214.9248">format=</text><text fill="#000000" font-family="sans-serif" font-size="14" lengthAdjust="spacing" textLength="4.4502" x="279.1709" y="214.9248">&#160;</text><text fill="#000000" font-family="sans-serif" font-size="14" font-weight="bold" lengthAdjust="spacing" textLength="8.1211" x="283.6211" y="214.9248">?</text><text fill="#000000" font-family="sans-serif" font-size="14" lengthAdjust="spacing" textLength="127.1416" x="301.0664" y="214.9248">means Debug, via</text><text fill="#000000" font-family="sans-serif" font-size="14" font-weight="bold" lengthAdjust="spacing" textLength="138.291" x="432.6582" y="214.9248">[#derive(Debug)]</text><text fill="#000000" font-family="sans-serif" font-size="14" lengthAdjust="spacing" textLength="75.7764" x="575.3994" y="214.9248">annotation</text><text fill="#000000" font-family="sans-serif" font-size="14" lengthAdjust="spacing" textLength="315.4238" x="210.9824" y="231.2217">- No format means obj should implement the</text><text fill="#000000" font-family="sans-serif" font-size="14" lengthAdjust="spacing" textLength="149.8506" x="219.8828" y="247.5186">std::fmt::Display trait</text><path d="M146.5322,210.0781 L156.5322,210.0781 C171.5322,210.0781 171.5322,210.0781 186.5322,210.0781 L196.5322,210.0781 " fill="#FFFFFF" fill-opacity="0.00000" style="stroke:#181818;stroke-width:1;"/><path d="M61.3838,523.6211 L71.3838,523.6211 C86.3838,523.6211 86.3838,210.0781 101.3838,210.0781 L111.3838,210.0781 " fill="#FFFFFF" fill-opacity="0.00000" style="stroke:#181818;stroke-width:1;"/><rect fill="#F1F1F1" height="36.2969" rx="12.5" ry="12.5" style="stroke:#181818;stroke-width:1.5;" width="60.7285" x="111.3838" y="412.4531"/><text fill="#000000" font-family="sans-serif" font-size="14" lengthAdjust="spacing" textLength="40.7285" x="121.3838" y="435.4482">async</text><text fill="#000000" font-family="sans-serif" font-size="14" font-weight="bold" lengthAdjust="spacing" textLength="66.1035" x="225.1123" y="284.8154">async fn</text><text fill="#000000" font-family="sans-serif" font-size="14" lengthAdjust="spacing" textLength="130.833" x="295.666" y="284.8154">syntactic sugar for</text><text fill="#000000" font-family="sans-serif" font-size="14" font-weight="bold" lengthAdjust="spacing" textLength="134.9072" x="430.9492" y="284.8154">fn .. -&gt; Future&lt;&gt;</text><path d="M172.1123,430.6016 L182.1123,430.6016 C197.1123,430.6016 197.1123,279.9688 212.1123,279.9688 L222.1123,279.9688 " fill="#FFFFFF" fill-opacity="0.00000" style="stroke:#181818;stroke-width:1;"/><text fill="#000000" font-family="sans-serif" font-size="14" font-weight="bold" lengthAdjust="spacing" textLength="43.3193" x="225.1123" y="303.1123">await</text><text fill="#000000" font-family="sans-serif" font-size="14" lengthAdjust="spacing" textLength="80.4932" x="272.8818" y="303.1123">waits on an</text><text fill="#000000" font-family="sans-serif" font-size="14" font-style="italic" lengthAdjust="spacing" textLength="40.7285" x="357.8252" y="303.1123">async</text><text fill="#000000" font-family="sans-serif" font-size="14" lengthAdjust="spacing" textLength="67.2178" x="403.0039" y="303.1123">operation</text><path d="M172.1123,430.6016 L182.1123,430.6016 C197.1123,430.6016 197.1123,298.2656 212.1123,298.2656 L222.1123,298.2656 " fill="#FFFFFF" fill-opacity="0.00000" style="stroke:#181818;stroke-width:1;"/><rect fill="#F1F1F1" height="150.375" rx="12.5" ry="12.5" style="stroke:#181818;stroke-width:1.5;" width="397.8564" x="222.1123" y="317.4141"/><text fill="#000000" font-family="sans-serif" font-size="14" lengthAdjust="spacing" textLength="4.4502" x="232.1123" y="340.4092">&#160;</text><text fill="#000000" font-family="sans-serif" font-size="14" font-weight="bold" lengthAdjust="spacing" textLength="46.6416" x="236.5625" y="340.4092">awat?</text><text fill="#000000" font-family="sans-serif" font-size="14" lengthAdjust="spacing" textLength="33.0859" x="287.6543" y="340.4092">is an</text><text fill="#000000" font-family="sans-serif" font-size="14" font-style="italic" lengthAdjust="spacing" textLength="37.9873" x="325.1904" y="340.4092">await</text><text fill="#000000" font-family="sans-serif" font-size="14" lengthAdjust="spacing" textLength="158.1016" x="367.6279" y="340.4092">operator followed by a</text><text fill="#000000" font-family="sans-serif" font-size="14" font-weight="bold" lengthAdjust="spacing" textLength="8.1211" x="530.1797" y="340.4092">?</text><text fill="#000000" font-family="sans-serif" font-size="14" lengthAdjust="spacing" textLength="67.2178" x="542.751" y="340.4092">operation</text><text fill="#000000" font-family="sans-serif" font-size="14" lengthAdjust="spacing" textLength="114.3447" x="236.5625" y="356.7061">syntax sugar for</text><text fill="#000000" font-family="sans-serif" font-size="14" font-style="italic" lengthAdjust="spacing" textLength="104.1455" x="355.3574" y="356.7061">return on error</text><text fill="#000000" font-family="sans-serif" font-size="14" lengthAdjust="spacing" textLength="57.0527" x="463.9531" y="356.7061">equiv to</text><text fill="#000000" font-family="sans-serif" font-size="14" lengthAdjust="spacing" textLength="4.4502" x="232.1123" y="373.0029">&#160;</text><text fill="#000000" font-family="sans-serif" font-size="14" lengthAdjust="spacing" textLength="4.4502" x="232.1123" y="389.2998">&#160;</text><text fill="#000000" font-family="sans-serif" font-size="14" font-style="italic" lengthAdjust="spacing" textLength="178.7461" x="236.5625" y="389.2998">match asyncFunc.await {</text><text fill="#000000" font-family="sans-serif" font-size="14" lengthAdjust="spacing" textLength="4.4502" x="232.1123" y="405.5967">&#160;</text><text fill="#000000" font-family="sans-serif" font-size="14" font-style="italic" lengthAdjust="spacing" textLength="143.3428" x="249.9131" y="405.5967">Ok(value) =&gt; value,</text><text fill="#000000" font-family="sans-serif" font-size="14" lengthAdjust="spacing" textLength="4.4502" x="232.1123" y="421.8936">&#160;</text><text fill="#000000" font-family="sans-serif" font-size="14" font-style="italic" lengthAdjust="spacing" textLength="258.2686" x="249.9131" y="421.8936">Err(error) =&gt; return Err(error.into()),</text><text fill="#000000" font-family="sans-serif" font-size="14" lengthAdjust="spacing" textLength="4.4502" x="232.1123" y="438.1904">&#160;</text><text fill="#000000" font-family="sans-serif" font-size="14" font-style="italic" lengthAdjust="spacing" textLength="8.9072" x="236.5625" y="438.1904">}</text><text fill="#000000" font-family="sans-serif" font-size="14" lengthAdjust="spacing" textLength="4.4502" x="232.1123" y="454.4873">&#160;</text><path d="M172.1123,430.6016 L182.1123,430.6016 C197.1123,430.6016 197.1123,392.6016 212.1123,392.6016 L222.1123,392.6016 " fill="#FFFFFF" fill-opacity="0.00000" style="stroke:#181818;stroke-width:1;"/><rect fill="#F1F1F1" height="36.2969" rx="12.5" ry="12.5" style="stroke:#181818;stroke-width:1.5;" width="266.8525" x="222.1123" y="487.7891"/><text fill="#000000" font-family="sans-serif" font-size="14" font-weight="bold" lengthAdjust="spacing" textLength="26.0381" x="232.1123" y="510.7842">Arc</text><text fill="#000000" font-family="sans-serif" font-size="14" lengthAdjust="spacing" textLength="5.0518" x="262.6006" y="510.7842">-</text><text fill="#000000" font-family="sans-serif" font-size="14" font-style="italic" lengthAdjust="spacing" textLength="206.8623" x="272.1025" y="510.7842">Atomically reference counted</text><path d="M172.1123,430.6016 L182.1123,430.6016 C197.1123,430.6016 197.1123,505.9375 212.1123,505.9375 L222.1123,505.9375 " fill="#FFFFFF" fill-opacity="0.00000" style="stroke:#181818;stroke-width:1;"/><rect fill="#F1F1F1" height="36.2969" rx="12.5" ry="12.5" style="stroke:#181818;stroke-width:1.5;" width="76.6904" x="222.1123" y="544.0859"/><text fill="#000000" font-family="sans-serif" font-size="14" lengthAdjust="spacing" textLength="43.3398" x="232.1123" y="567.0811">Mutex</text><path d="M172.1123,430.6016 L182.1123,430.6016 C197.1123,430.6016 197.1123,562.2344 212.1123,562.2344 L222.1123,562.2344 " fill="#FFFFFF" fill-opacity="0.00000" style="stroke:#181818;stroke-width:1;"/><path d="M61.3838,523.6211 L71.3838,523.6211 C86.3838,523.6211 86.3838,430.6016 101.3838,430.6016 L111.3838,430.6016 " fill="#FFFFFF" fill-opacity="0.00000" style="stroke:#181818;stroke-width:1;"/><rect fill="#F1F1F1" height="36.2969" rx="12.5" ry="12.5" style="stroke:#181818;stroke-width:1.5;" width="66.7236" x="111.3838" y="600.3828"/><text fill="#000000" font-family="sans-serif" font-size="14" lengthAdjust="spacing" textLength="46.7236" x="121.3838" y="623.3779">Option</text><text fill="#000000" font-family="sans-serif" font-size="14" lengthAdjust="spacing" textLength="46.1631" x="231.1074" y="614.2295">.take()</text><path d="M178.1074,618.5313 L188.1074,618.5313 C203.1074,618.5313 203.1074,609.3828 218.1074,609.3828 L228.1074,609.3828 " fill="#FFFFFF" fill-opacity="0.00000" style="stroke:#181818;stroke-width:1;"/><text fill="#000000" font-family="sans-serif" font-size="14" lengthAdjust="spacing" textLength="62.2686" x="231.1074" y="632.5264">.ok_or(..)</text><path d="M178.1074,618.5313 L188.1074,618.5313 C203.1074,618.5313 203.1074,627.6797 218.1074,627.6797 L228.1074,627.6797 " fill="#FFFFFF" fill-opacity="0.00000" style="stroke:#181818;stroke-width:1;"/><path d="M61.3838,523.6211 L71.3838,523.6211 C86.3838,523.6211 86.3838,618.5313 101.3838,618.5313 L111.3838,618.5313 " fill="#FFFFFF" fill-opacity="0.00000" style="stroke:#181818;stroke-width:1;"/><rect fill="#F1F1F1" height="36.2969" rx="12.5" ry="12.5" style="stroke:#181818;stroke-width:1.5;" width="95.708" x="111.3838" y="656.6797"/><text fill="#000000" font-family="sans-serif" font-size="14" lengthAdjust="spacing" textLength="75.708" x="121.3838" y="679.6748">Containers</text><text fill="#000000" font-family="sans-serif" font-size="14" lengthAdjust="spacing" textLength="25.8877" x="260.0918" y="679.6748">Vec</text><path d="M207.0918,674.8281 L217.0918,674.8281 C232.0918,674.8281 232.0918,674.8281 247.0918,674.8281 L257.0918,674.8281 " fill="#FFFFFF" fill-opacity="0.00000" style="stroke:#181818;stroke-width:1;"/><path d="M61.3838,523.6211 L71.3838,523.6211 C86.3838,523.6211 86.3838,674.8281 101.3838,674.8281 L111.3838,674.8281 " fill="#FFFFFF" fill-opacity="0.00000" style="stroke:#181818;stroke-width:1;"/><rect fill="#F1F1F1" height="36.2969" rx="12.5" ry="12.5" style="stroke:#181818;stroke-width:1.5;" width="117.7402" x="111.3838" y="729.8672"/><text fill="#000000" font-family="sans-serif" font-size="14" lengthAdjust="spacing" textLength="97.7402" x="121.3838" y="752.8623">dependencies</text><text fill="#000000" font-family="sans-serif" font-size="14" lengthAdjust="spacing" textLength="34.6172" x="282.124" y="697.9717">tokio</text><path d="M229.124,748.0156 L239.124,748.0156 C254.124,748.0156 254.124,693.125 269.124,693.125 L279.124,693.125 " fill="#FFFFFF" fill-opacity="0.00000" style="stroke:#181818;stroke-width:1;"/><text fill="#000000" font-family="sans-serif" font-size="14" lengthAdjust="spacing" textLength="39.1631" x="282.124" y="716.2686">serde</text><path d="M229.124,748.0156 L239.124,748.0156 C254.124,748.0156 254.124,711.4219 269.124,711.4219 L279.124,711.4219 " fill="#FFFFFF" fill-opacity="0.00000" style="stroke:#181818;stroke-width:1;"/><text fill="#000000" font-family="sans-serif" font-size="14" lengthAdjust="spacing" textLength="72.8369" x="282.124" y="734.5654">serde-json</text><path d="M229.124,748.0156 L239.124,748.0156 C254.124,748.0156 254.124,729.7188 269.124,729.7188 L279.124,729.7188 " fill="#FFFFFF" fill-opacity="0.00000" style="stroke:#181818;stroke-width:1;"/><text fill="#000000" font-family="sans-serif" font-size="14" lengthAdjust="spacing" textLength="39.375" x="282.124" y="752.8623">axum</text><path d="M229.124,748.0156 L239.124,748.0156 C254.124,748.0156 254.124,748.0156 269.124,748.0156 L279.124,748.0156 " fill="#FFFFFF" fill-opacity="0.00000" style="stroke:#181818;stroke-width:1;"/><text fill="#000000" font-family="sans-serif" font-size="14" lengthAdjust="spacing" textLength="73.6641" x="282.124" y="771.1592">tower-http</text><path d="M229.124,748.0156 L239.124,748.0156 C254.124,748.0156 254.124,766.3125 269.124,766.3125 L279.124,766.3125 " fill="#FFFFFF" fill-opacity="0.00000" style="stroke:#181818;stroke-width:1;"/><text fill="#000000" font-family="sans-serif" font-size="14" lengthAdjust="spacing" textLength="97.6582" x="282.124" y="789.4561">tower-cookies</text><path d="M229.124,748.0156 L239.124,748.0156 C254.124,748.0156 254.124,784.6094 269.124,784.6094 L279.124,784.6094 " fill="#FFFFFF" fill-opacity="0.00000" style="stroke:#181818;stroke-width:1;"/><text fill="#000000" font-family="sans-serif" font-size="14" lengthAdjust="spacing" textLength="73.3086" x="282.124" y="807.7529">lazy-regex</text><path d="M229.124,748.0156 L239.124,748.0156 C254.124,748.0156 254.124,802.9063 269.124,802.9063 L279.124,802.9063 " fill="#FFFFFF" fill-opacity="0.00000" style="stroke:#181818;stroke-width:1;"/><path d="M61.3838,523.6211 L71.3838,523.6211 C86.3838,523.6211 86.3838,748.0156 101.3838,748.0156 L111.3838,748.0156 " fill="#FFFFFF" fill-opacity="0.00000" style="stroke:#181818;stroke-width:1;"/><rect fill="#F1F1F1" height="36.2969" rx="12.5" ry="12.5" style="stroke:#181818;stroke-width:1.5;" width="148.5771" x="111.3838" y="822.0547"/><text fill="#000000" font-family="sans-serif" font-size="14" lengthAdjust="spacing" textLength="128.5771" x="121.3838" y="845.0498">dev-dependencies</text><text fill="#000000" font-family="sans-serif" font-size="14" lengthAdjust="spacing" textLength="54.626" x="312.9609" y="835.9014">anyhow</text><path d="M259.9609,840.2031 L269.9609,840.2031 C284.9609,840.2031 284.9609,831.0547 299.9609,831.0547 L309.9609,831.0547 " fill="#FFFFFF" fill-opacity="0.00000" style="stroke:#181818;stroke-width:1;"/><text fill="#000000" font-family="sans-serif" font-size="14" lengthAdjust="spacing" textLength="68.373" x="312.9609" y="854.1982">httpc-test</text><path d="M259.9609,840.2031 L269.9609,840.2031 C284.9609,840.2031 284.9609,849.3516 299.9609,849.3516 L309.9609,849.3516 " fill="#FFFFFF" fill-opacity="0.00000" style="stroke:#181818;stroke-width:1;"/><path d="M61.3838,523.6211 L71.3838,523.6211 C86.3838,523.6211 86.3838,840.2031 101.3838,840.2031 L111.3838,840.2031 " fill="#FFFFFF" fill-opacity="0.00000" style="stroke:#181818;stroke-width:1;"/><rect fill="#F1F1F1" height="36.2969" rx="12.5" ry="12.5" style="stroke:#181818;stroke-width:1.5;" width="40.3711" x="111.3838" y="934.6484"/><text fill="#000000" font-family="sans-serif" font-size="14" lengthAdjust="spacing" textLength="20.3711" x="121.3838" y="957.6436">DX</text><rect fill="#F1F1F1" height="36.2969" rx="12.5" ry="12.5" style="stroke:#181818;stroke-width:1.5;" width="344.1123" x="201.7549" y="878.3516"/><text fill="#000000" font-family="sans-serif" font-size="14" lengthAdjust="spacing" textLength="50.4424" x="211.7549" y="901.3467">Special</text><text fill="#000000" font-family="sans-serif" font-size="14" font-weight="bold" lengthAdjust="spacing" textLength="55.1318" x="266.6475" y="901.3467">todo!()</text><text fill="#000000" font-family="sans-serif" font-size="14" lengthAdjust="spacing" textLength="209.6377" x="326.2295" y="901.3467">placeholder impl for functions</text><path d="M151.7549,952.7969 L161.7549,952.7969 C176.7549,952.7969 176.7549,896.5 191.7549,896.5 L201.7549,896.5 " fill="#FFFFFF" fill-opacity="0.00000" style="stroke:#181818;stroke-width:1;"/><rect fill="#F1F1F1" height="36.2969" rx="12.5" ry="12.5" style="stroke:#181818;stroke-width:1.5;" width="252.3057" x="201.7549" y="934.6484"/><text fill="#000000" font-family="sans-serif" font-size="14" lengthAdjust="spacing" textLength="232.3057" x="211.7549" y="957.6436">Destructuring in function params</text><path d="M151.7549,952.7969 L161.7549,952.7969 C176.7549,952.7969 176.7549,952.7969 191.7549,952.7969 L201.7549,952.7969 " fill="#FFFFFF" fill-opacity="0.00000" style="stroke:#181818;stroke-width:1;"/><rect fill="#F1F1F1" height="36.2969" rx="12.5" ry="12.5" style="stroke:#181818;stroke-width:1.5;" width="214.79" x="201.7549" y="990.9453"/><text fill="#000000" font-family="sans-serif" font-size="14" lengthAdjust="spacing" textLength="194.79" x="211.7549" y="1013.9404">Blocks having return values</text><path d="M151.7549,952.7969 L161.7549,952.7969 C176.7549,952.7969 176.7549,1009.0938 191.7549,1009.0938 L201.7549,1009.0938 " fill="#FFFFFF" fill-opacity="0.00000" style="stroke:#181818;stroke-width:1;"/><path d="M61.3838,523.6211 L71.3838,523.6211 C86.3838,523.6211 86.3838,952.7969 101.3838,952.7969 L111.3838,952.7969 " fill="#FFFFFF" fill-opacity="0.00000" style="stroke:#181818;stroke-width:1;"/><rect fill="#FFA500" height="36.2969" rx="12.5" ry="12.5" style="stroke:#181818;stroke-width:1.5;" width="117.8018" x="10" y="1115.5039"/><text fill="#000000" font-family="sans-serif" font-size="14" font-weight="bold" lengthAdjust="spacing" textLength="97.8018" x="20" y="1138.499">#[derive(..)]</text><text fill="#000000" font-family="sans-serif" font-size="14" lengthAdjust="spacing" textLength="50.832" x="180.8018" y="1051.2373">of form</text><text fill="#000000" font-family="sans-serif" font-size="14" font-weight="bold" lengthAdjust="spacing" textLength="214.4297" x="236.084" y="1051.2373">#[derive(Trait1, .., TraitN)]</text><path d="M127.8018,1133.6523 L137.8018,1133.6523 C152.8018,1133.6523 152.8018,1046.3906 167.8018,1046.3906 L177.8018,1046.3906 " fill="#FFFFFF" fill-opacity="0.00000" style="stroke:#181818;stroke-width:1;"/><text fill="#000000" font-family="sans-serif" font-size="14" lengthAdjust="spacing" textLength="142.0303" x="180.8018" y="1069.5342">Attribute on a struct</text><path d="M127.8018,1133.6523 L137.8018,1133.6523 C152.8018,1133.6523 152.8018,1064.6875 167.8018,1064.6875 L177.8018,1064.6875 " fill="#FFFFFF" fill-opacity="0.00000" style="stroke:#181818;stroke-width:1;"/><text fill="#000000" font-family="sans-serif" font-size="14" lengthAdjust="spacing" textLength="420.1025" x="180.8018" y="1087.8311">Asks for auto generating a suitable implementation of traits</text><path d="M127.8018,1133.6523 L137.8018,1133.6523 C152.8018,1133.6523 152.8018,1082.9844 167.8018,1082.9844 L177.8018,1082.9844 " fill="#FFFFFF" fill-opacity="0.00000" style="stroke:#181818;stroke-width:1;"/><rect fill="#FFFF00" height="36.2969" rx="12.5" ry="12.5" style="stroke:#181818;stroke-width:1.5;" width="158.291" x="177.8018" y="1102.1328"/><text fill="#000000" font-family="sans-serif" font-size="14" font-weight="bold" lengthAdjust="spacing" textLength="138.291" x="187.8018" y="1125.1279">#[derive(Debug)]</text><text fill="#000000" font-family="sans-serif" font-size="14" lengthAdjust="spacing" textLength="34.6445" x="389.0928" y="1115.9795">Adds</text><text fill="#000000" font-family="sans-serif" font-size="14" font-weight="bold" lengthAdjust="spacing" textLength="344.292" x="428.1875" y="1115.9795">fn fmt(&amp;self, std::fmt::Formatter) -&gt; Result</text><path d="M336.0928,1120.2813 L346.0928,1120.2813 C361.0928,1120.2813 361.0928,1111.1328 376.0928,1111.1328 L386.0928,1111.1328 " fill="#FFFFFF" fill-opacity="0.00000" style="stroke:#181818;stroke-width:1;"/><text fill="#000000" font-family="sans-serif" font-size="14" lengthAdjust="spacing" textLength="72.7139" x="389.0928" y="1134.2764">Usable via</text><text fill="#000000" font-family="sans-serif" font-size="14" font-weight="bold" lengthAdjust="spacing" textLength="33.6533" x="466.2568" y="1134.2764">{:?}</text><text fill="#000000" font-family="sans-serif" font-size="14" lengthAdjust="spacing" textLength="91.5947" x="504.3604" y="1134.2764">format string</text><path d="M336.0928,1120.2813 L346.0928,1120.2813 C361.0928,1120.2813 361.0928,1129.4297 376.0928,1129.4297 L386.0928,1129.4297 " fill="#FFFFFF" fill-opacity="0.00000" style="stroke:#181818;stroke-width:1;"/><path d="M127.8018,1133.6523 L137.8018,1133.6523 C152.8018,1133.6523 152.8018,1120.2813 167.8018,1120.2813 L177.8018,1120.2813 " fill="#FFFFFF" fill-opacity="0.00000" style="stroke:#181818;stroke-width:1;"/><rect fill="#FFFF00" height="36.2969" rx="12.5" ry="12.5" style="stroke:#181818;stroke-width:1.5;" width="194.501" x="177.8018" y="1166.1719"/><text fill="#000000" font-family="sans-serif" font-size="14" font-weight="bold" lengthAdjust="spacing" textLength="174.501" x="187.8018" y="1189.167">#[derive(Deserialize)]</text><text fill="#000000" font-family="sans-serif" font-size="14" lengthAdjust="spacing" textLength="11.7305" x="425.3027" y="1152.5732">+</text><text fill="#000000" font-family="sans-serif" font-size="14" font-style="italic" lengthAdjust="spacing" textLength="309.0254" x="441.4834" y="1152.5732">serde = {version="1", features=["derive]"}</text><path d="M372.3027,1184.3203 L382.3027,1184.3203 C397.3027,1184.3203 397.3027,1147.7266 412.3027,1147.7266 L422.3027,1147.7266 " fill="#FFFFFF" fill-opacity="0.00000" style="stroke:#181818;stroke-width:1;"/><text fill="#000000" font-family="sans-serif" font-size="14" lengthAdjust="spacing" textLength="11.7305" x="425.3027" y="1170.8701">+</text><text fill="#000000" font-family="sans-serif" font-size="14" font-style="italic" lengthAdjust="spacing" textLength="108.3018" x="441.4834" y="1170.8701">serde_json="1"</text><path d="M372.3027,1184.3203 L382.3027,1184.3203 C397.3027,1184.3203 397.3027,1166.0234 412.3027,1166.0234 L422.3027,1166.0234 " fill="#FFFFFF" fill-opacity="0.00000" style="stroke:#181818;stroke-width:1;"/><text fill="#000000" font-family="sans-serif" font-size="14" font-style="italic" lengthAdjust="spacing" textLength="261.1533" x="425.3027" y="1189.167">serde_json::to_string(&amp;obj).unwrap();</text><path d="M372.3027,1184.3203 L382.3027,1184.3203 C397.3027,1184.3203 397.3027,1184.3203 412.3027,1184.3203 L422.3027,1184.3203 " fill="#FFFFFF" fill-opacity="0.00000" style="stroke:#181818;stroke-width:1;"/><text fill="#000000" font-family="sans-serif" font-size="14" font-style="italic" lengthAdjust="spacing" textLength="325.4043" x="425.3027" y="1207.4639">serde_json::from_string(&amp;serialized).unwrap();</text><path d="M372.3027,1184.3203 L382.3027,1184.3203 C397.3027,1184.3203 397.3027,1202.6172 412.3027,1202.6172 L422.3027,1202.6172 " fill="#FFFFFF" fill-opacity="0.00000" style="stroke:#181818;stroke-width:1;"/><text fill="#000000" font-family="sans-serif" font-size="14" lengthAdjust="spacing" textLength="222.5098" x="425.3027" y="1225.7607">See https://serde.rs/derive.html</text><path d="M372.3027,1184.3203 L382.3027,1184.3203 C397.3027,1184.3203 397.3027,1220.9141 412.3027,1220.9141 L422.3027,1220.9141 " fill="#FFFFFF" fill-opacity="0.00000" style="stroke:#181818;stroke-width:1;"/><path d="M127.8018,1133.6523 L137.8018,1133.6523 C152.8018,1133.6523 152.8018,1184.3203 167.8018,1184.3203 L177.8018,1184.3203 " fill="#FFFFFF" fill-opacity="0.00000" style="stroke:#181818;stroke-width:1;"/><rect fill="#FFA500" height="36.2969" rx="12.5" ry="12.5" style="stroke:#181818;stroke-width:1.5;" width="113.5703" x="10" y="1248.2109"/><text fill="#000000" font-family="sans-serif" font-size="14" lengthAdjust="spacing" textLength="93.5703" x="20" y="1271.2061">Rust Specials</text><rect fill="#F1F1F1" height="52.5938" rx="12.5" ry="12.5" style="stroke:#181818;stroke-width:1.5;" width="372.9941" x="173.5703" y="1240.0625"/><text fill="#000000" font-family="sans-serif" font-size="14" font-weight="bold" lengthAdjust="spacing" textLength="170.9121" x="183.5703" y="1263.0576">Option&lt;T&gt;.as_deref()</text><text fill="#000000" font-family="sans-serif" font-size="14" lengthAdjust="spacing" textLength="79.0781" x="358.9326" y="1263.0576">converts to</text><text fill="#000000" font-family="sans-serif" font-size="14" font-style="italic" lengthAdjust="spacing" textLength="94.1035" x="442.4609" y="1263.0576">Option&lt;&amp;T &gt;</text><text fill="#000000" font-family="sans-serif" font-size="14" lengthAdjust="spacing" textLength="278.0107" x="183.5703" y="1279.3545">avoid string creation he says. T=String.</text><path d="M123.5703,1266.3594 L133.5703,1266.3594 C148.5703,1266.3594 148.5703,1266.3594 163.5703,1266.3594 L173.5703,1266.3594 " fill="#FFFFFF" fill-opacity="0.00000" style="stroke:#181818;stroke-width:1;"/><!--SRC=[xLPjRzis4FwkNt59W4JIRBa9jc5GchScpR0iBqNj10E2mA2bayr68ZsISk8Q-UyxafBZOaMxxTC-E80ZYVVAk-SvybWRfap5HLwnQH33nrgR88XZEAz5PhWKG1ynC3NMa3418uGupb4RLMUcLfYJi52o0h-YDwnwF8I2p264GJqjiUz4rwp2a7L6KVIboZd7CdzLMP3AI-HI6Codg0Ed6yTXH2jSmqpotAM4egvquueRh3GbYPHZMM9E-dTCSIQCZkD6PzOijDje4cwa4pP3CD8AJYcByfHfp3UW5YLg3NgA6IVFSs12ICCCverT76_Taq0-XKAAOMPDwR_6eR79HmyKtcxbjnkhdvBwuYMEEs0c28LK5JFUTy5HTUpsPE7MRTKN84UV86tro2w0BlHw_lkWroDlH_I32fdGS8QZUjo16MUqTh-Le-8p3DsgJQFDd5fgtLpBrg-tjg7qHDPb3hoYdbKeZCio0A1IvMbQL2PDpxYUbcmEHZ5kzjtMc9wBhEsI-u12q3gz6KOGoa3NOwPiE58e12G9T0y9NnO-RmzzVvpj4_aaG_kWX0HbJBjr7cclSehAPzyKajJDaSU4LxHsIqLf0zg-41X6r3PRAr9-zUBpUrv9hjTJI3a96ngLaegSuPyrdn4kWe34LAriulThsP6uYB3ezQoGodJp6CvOMMC41uVWtZfBsNkbGkVK2Pj0oyM42oF3A6hqN-Ynxq0UnoSgewVj-ucH5SyS2XKMg51aX7TP2q8Z6LZrgzhWCqLpZRcPjkKQGcBO8uPHyo4VXrA5IU9fTYgf45oWQhXsXvbRpt6A8gSel6MXaOzS-bUDAiULr-udtSPYptNLwZ-XwawCcQv-PvBSj2vBzddULJZ6voRchFltk4pC9_89_8TrbtKDDdFgx0-tyxvdA1NCo5nkk6b1ICrm8akYWWErwtBHp3NdcaZJJZ8kni35KWnJffYVB_2kbDcZjYF2AZMzS_tLGR3J_UPVi0CKn58HHixDTms8kr8nCSO7DrmQ7bEp7XnLXiiHiI8TM3hkTeXQ7N3lrqlj4sCK7n4k7AEQgUSbcZPbIy9g6dnZ58uQj4FIghbXen9VPu4ZZGtjcAzjwU-tvcWPzaMUotdZctMIvzgpdiP7kAsnB3ehu-JSZI23n0eQ2HzHrwLfJM-roy3FiqLwz69FccPa6jkkR-H0a2GmyC_uciaFn227L3Y0nOp0JlivsDpTx421p8uYVN2_wHqyRBvuFgrO3Is-hNuhMLrFKoE7FgbmcoPfbDJYIR5f6Er_NTsUc4k3PRBvL-pwY0xnEcqy94htV9h9n5Jbzm1eyMUvGTIeDRhpHTaZVkSVWz3U25fwMJwaSUmdozl1OSBqa9B1ml4jau8AIxERuDJhDKhR0pYapJ1xRZUDWqoXnnETBvhDTGA3WxuJ9NIc71Fxsmj9SBo-dwpl9-lxoVf-ihwV_BVxoVewiRvE_9lhnF_cvFzGqcbuUtK9JNLXDzbxi_TJiZT2mtR3M_4ev9EWqDMKKsCDhp0Amby_N8AMjQBHatFjiKh6KN31Pens9AnUIhC7nSNPx-q2l1SphgImq0mkxgvU5Nx-iVkEXcWV5QK1TrV16HQCO4KMcSmfxnHk1-VTNu9BgbdDnkGRHN1gfvwQawp_5m00]--></g></svg>