<svg xmlns="http://www.w3.org/2000/svg" xmlns:xlink="http://www.w3.org/1999/xlink" contentStyleType="text/css" height="3086px" preserveAspectRatio="none" style="width:1063px;height:3086px;background:#FFFFFF;" version="1.1" viewBox="0 0 1063 3086" width="1063px" zoomAndPan="magnify"><title>= Conclusion of project</title><defs/><g><text fill="#000000" font-family="sans-serif" font-size="18" font-weight="bold" lengthAdjust="spacing" textLength="214.6201" x="423.1182" y="36.708">Conclusion of project</text><rect fill="#F1F1F1" height="36.2969" rx="12.5" ry="12.5" style="stroke:#181818;stroke-width:1.5;" width="118.2666" x="10" y="1347.9609"/><text fill="#000000" font-family="sans-serif" font-size="14" lengthAdjust="spacing" textLength="98.2666" x="20" y="1370.9561">Requirements</text><rect fill="#90EE90" height="36.2969" rx="12.5" ry="12.5" style="stroke:#181818;stroke-width:1.5;" width="143.3066" x="178.2666" y="636.7813"/><text fill="#000000" font-family="sans-serif" font-size="14" lengthAdjust="spacing" textLength="123.3066" x="188.2666" y="659.7764">&#10004;&#65039; Data Collection</text><rect fill="#F1F1F1" height="182.9688" rx="12.5" ry="12.5" style="stroke:#181818;stroke-width:1.5;" width="489.8408" x="371.5732" y="61.9531"/><text fill="#000000" font-family="sans-serif" font-size="14" lengthAdjust="spacing" textLength="403.9014" x="386.0234" y="84.9482">From feedspot or ask ChatGPT for top 20 RSS feeds for AI</text><text fill="#000000" font-family="sans-serif" font-size="14" lengthAdjust="spacing" textLength="108.7051" x="386.0234" y="101.2451">- arxiv feeds by</text><text fill="#000000" font-family="sans-serif" font-size="14" font-style="italic" lengthAdjust="spacing" textLength="33.1475" x="499.1787" y="101.2451">cs.AI</text><text fill="#000000" font-family="sans-serif" font-size="14" lengthAdjust="spacing" textLength="170.0234" x="536.7764" y="101.2451">category, see taxonomy</text><text fill="#000000" font-family="sans-serif" font-size="14" lengthAdjust="spacing" textLength="460.9404" x="386.0234" y="117.542">- Ensure deeplearning, arxiv, simonwillison.net and correlate with</text><text fill="#000000" font-family="sans-serif" font-size="14" lengthAdjust="spacing" textLength="187.8926" x="394.9238" y="133.8389">top-20 in rss.feedspot.com</text><text fill="#000000" font-family="sans-serif" font-size="14" lengthAdjust="spacing" textLength="4.4502" x="381.5732" y="150.1357">&#160;</text><text fill="#000000" font-family="sans-serif" font-size="14" lengthAdjust="spacing" textLength="4.4502" x="381.5732" y="166.4326">&#160;</text><text fill="#000000" font-family="sans-serif" font-size="14" font-weight="bold" lengthAdjust="spacing" textLength="223.5352" x="386.0234" y="166.4326">Spend Least amount of time</text><text fill="#000000" font-family="sans-serif" font-size="14" lengthAdjust="spacing" textLength="4.4502" x="381.5732" y="182.7295">&#160;</text><text fill="#000000" font-family="sans-serif" font-size="14" lengthAdjust="spacing" textLength="296.0303" x="386.0234" y="199.0264">&#128543; Took a whoel day with APi failures, rate</text><text fill="#000000" font-family="sans-serif" font-size="14" lengthAdjust="spacing" textLength="275.7549" x="386.0234" y="215.3232">limits. arXiv server 400s and 500s, PDF</text><text fill="#000000" font-family="sans-serif" font-size="14" lengthAdjust="spacing" textLength="76.4121" x="386.0234" y="231.6201">conversion</text><path d="M321.5732,654.9297 L331.5732,654.9297 C346.5732,654.9297 346.5732,153.4375 361.5732,153.4375 L371.5732,153.4375 " fill="none" style="stroke:#181818;stroke-width:1.0;"/><rect fill="#90EE90" height="36.2969" rx="12.5" ry="12.5" style="stroke:#181818;stroke-width:1.5;" width="105.1416" x="371.5732" y="426.4063"/><text fill="#000000" font-family="sans-serif" font-size="14" lengthAdjust="spacing" textLength="85.1416" x="381.5732" y="449.4014">&#10004;&#65039;RSS Feeds</text><rect fill="#F1F1F1" height="36.2969" rx="12.5" ry="12.5" style="stroke:#181818;stroke-width:1.5;" width="99.96" x="526.7148" y="264.9219"/><text fill="#000000" font-family="sans-serif" font-size="14" lengthAdjust="spacing" textLength="79.96" x="536.7148" y="287.917">&#10004;&#65039;Feed only</text><path d="M476.7148,444.5547 L486.7148,444.5547 C501.7148,444.5547 501.7148,283.0703 516.7148,283.0703 L526.7148,283.0703 " fill="none" style="stroke:#181818;stroke-width:1.0;"/><rect fill="#F1F1F1" height="36.2969" rx="12.5" ry="12.5" style="stroke:#181818;stroke-width:1.5;" width="271.1523" x="526.7148" y="321.2188"/><text fill="#000000" font-family="sans-serif" font-size="14" lengthAdjust="spacing" textLength="251.1523" x="536.7148" y="344.2139">&#128543; Several feeds failed. Ignoring em</text><path d="M476.7148,444.5547 L486.7148,444.5547 C501.7148,444.5547 501.7148,339.3672 516.7148,339.3672 L526.7148,339.3672 " fill="none" style="stroke:#181818;stroke-width:1.0;"/><rect fill="#F1F1F1" height="36.2969" rx="12.5" ry="12.5" style="stroke:#181818;stroke-width:1.5;" width="266.8389" x="526.7148" y="377.5156"/><text fill="#000000" font-family="sans-serif" font-size="14" lengthAdjust="spacing" textLength="246.8389" x="536.7148" y="400.5107">&#10060; Look for references to papers too</text><path d="M476.7148,444.5547 L486.7148,444.5547 C501.7148,444.5547 501.7148,395.6641 516.7148,395.6641 L526.7148,395.6641 " fill="none" style="stroke:#181818;stroke-width:1.0;"/><rect fill="#F1F1F1" height="52.5938" rx="12.5" ry="12.5" style="stroke:#181818;stroke-width:1.5;" width="259.4219" x="526.7148" y="433.8125"/><text fill="#000000" font-family="sans-serif" font-size="14" lengthAdjust="spacing" textLength="232.1758" x="541.165" y="456.8076">&#10067; Feeds already have summaries</text><text fill="#000000" font-family="sans-serif" font-size="14" lengthAdjust="spacing" textLength="239.4219" x="536.7148" y="473.1045">and tags in them. Use them as-is?</text><path d="M476.7148,444.5547 L486.7148,444.5547 C501.7148,444.5547 501.7148,460.1094 516.7148,460.1094 L526.7148,460.1094 " fill="none" style="stroke:#181818;stroke-width:1.0;"/><rect fill="#FFFFE0" height="117.7813" rx="12.5" ry="12.5" style="stroke:#181818;stroke-width:1.5;" width="391.2393" x="526.7148" y="506.4063"/><text fill="#000000" font-family="sans-serif" font-size="14" lengthAdjust="spacing" textLength="292.9336" x="536.7148" y="529.4014">&#128073;Feeds are limited. 10 days worth usually</text><text fill="#000000" font-family="sans-serif" font-size="14" lengthAdjust="spacing" textLength="371.2393" x="536.7148" y="545.6982">ArxivAPI however, allows time-ranges, with sampling</text><text fill="#000000" font-family="sans-serif" font-size="14" lengthAdjust="spacing" textLength="211.7363" x="536.7148" y="561.9951">can get for a wide time period</text><text fill="#000000" font-family="sans-serif" font-size="14" lengthAdjust="spacing" textLength="4.4502" x="536.7148" y="578.292">&#160;</text><text fill="#000000" font-family="sans-serif" font-size="14" lengthAdjust="spacing" textLength="353.8281" x="536.7148" y="594.5889">With feeds, you need local archiving with frequent</text><text fill="#000000" font-family="sans-serif" font-size="14" lengthAdjust="spacing" textLength="369.1953" x="536.7148" y="610.8857">top-ups from the actual feed to maintain the archive</text><path d="M476.7148,444.5547 L486.7148,444.5547 C501.7148,444.5547 501.7148,565.2969 516.7148,565.2969 L526.7148,565.2969 " fill="none" style="stroke:#181818;stroke-width:1.0;"/><path d="M321.5732,654.9297 L331.5732,654.9297 C346.5732,654.9297 346.5732,444.5547 361.5732,444.5547 L371.5732,444.5547 " fill="none" style="stroke:#181818;stroke-width:1.0;"/><rect fill="#90EE90" height="36.2969" rx="12.5" ry="12.5" style="stroke:#181818;stroke-width:1.5;" width="156.7803" x="371.5732" y="927.8984"/><text fill="#000000" font-family="sans-serif" font-size="14" lengthAdjust="spacing" textLength="136.7803" x="381.5732" y="950.8936">&#10004;&#65039; Academic Papers</text><rect fill="#F1F1F1" height="68.8906" rx="12.5" ry="12.5" style="stroke:#181818;stroke-width:1.5;" width="224.9277" x="578.3535" y="644.1875"/><text fill="#000000" font-family="sans-serif" font-size="14" lengthAdjust="spacing" textLength="114.6045" x="592.8037" y="667.1826">Limit to arxivAPI</text><text fill="#000000" font-family="sans-serif" font-size="14" lengthAdjust="spacing" textLength="204.9277" x="588.3535" y="683.4795">Rate limits: 1 req / 3 seconds</text><text fill="#000000" font-family="sans-serif" font-size="14" lengthAdjust="spacing" textLength="11.7305" x="588.3535" y="699.7764">&#10004;&#65039;</text><text fill="#000000" font-family="sans-serif" font-size="14" font-style="italic" lengthAdjust="spacing" textLength="59.2334" x="608.9844" y="699.7764">ratelimit</text><text fill="#000000" font-family="sans-serif" font-size="14" lengthAdjust="spacing" textLength="91.3008" x="672.668" y="699.7764">module in py</text><path d="M528.3535,946.0469 L538.3535,946.0469 C553.3535,946.0469 553.3535,678.6328 568.3535,678.6328 L578.3535,678.6328 " fill="none" style="stroke:#181818;stroke-width:1.0;"/><rect fill="#F1F1F1" height="117.7813" rx="12.5" ry="12.5" style="stroke:#181818;stroke-width:1.5;" width="339.0537" x="578.3535" y="733.0781"/><text fill="#000000" font-family="sans-serif" font-size="14" lengthAdjust="spacing" textLength="167.501" x="592.8037" y="756.0732">&#10004;&#65039; Arxiv feed for 3 years</text><text fill="#000000" font-family="sans-serif" font-size="14" lengthAdjust="spacing" textLength="129.4043" x="588.3535" y="772.3701">Massive 100+/day</text><text fill="#000000" font-family="sans-serif" font-size="14" lengthAdjust="spacing" textLength="252.041" x="588.3535" y="788.667">Reduced to 10/day in metadata pull</text><text fill="#000000" font-family="sans-serif" font-size="14" lengthAdjust="spacing" textLength="4.4502" x="588.3535" y="804.9639">&#160;</text><text fill="#000000" font-family="sans-serif" font-size="14" lengthAdjust="spacing" textLength="252.3145" x="588.3535" y="821.2607">PDF Papers: 40-70 min to pull 1/day</text><text fill="#000000" font-family="sans-serif" font-size="14" lengthAdjust="spacing" textLength="319.0537" x="588.3535" y="837.5576">1095 days. Managed 4 days worth in batches</text><path d="M528.3535,946.0469 L538.3535,946.0469 C553.3535,946.0469 553.3535,791.9688 568.3535,791.9688 L578.3535,791.9688 " fill="none" style="stroke:#181818;stroke-width:1.0;"/><rect fill="#F1F1F1" height="134.0781" rx="12.5" ry="12.5" style="stroke:#181818;stroke-width:1.5;" width="411.4395" x="578.3535" y="870.8594"/><text fill="#000000" font-family="sans-serif" font-size="14" lengthAdjust="spacing" textLength="94.2881" x="588.3535" y="893.8545">&#10004;&#65039; PDF to text</text><text fill="#000000" font-family="sans-serif" font-size="14" font-style="italic" lengthAdjust="spacing" textLength="92.709" x="588.3535" y="910.1514">pymupdf4llm</text><text fill="#000000" font-family="sans-serif" font-size="14" lengthAdjust="spacing" textLength="93.1533" x="685.5127" y="910.1514">worked great</text><text fill="#000000" font-family="sans-serif" font-size="14" lengthAdjust="spacing" textLength="262.0898" x="588.3535" y="926.4482">120minutes for 1000 PDFs though on</text><text fill="#000000" font-family="sans-serif" font-size="14" lengthAdjust="spacing" textLength="386.9893" x="588.3535" y="942.7451">my machine. Could have been faster if I was doing it in</text><text fill="#000000" font-family="sans-serif" font-size="14" lengthAdjust="spacing" textLength="367.5205" x="588.3535" y="959.042">paralell but started each batch before I took a break</text><text fill="#000000" font-family="sans-serif" font-size="14" lengthAdjust="spacing" textLength="4.4502" x="588.3535" y="975.3389">&#160;</text><text fill="#000000" font-family="sans-serif" font-size="14" lengthAdjust="spacing" textLength="8.4014" x="588.3535" y="991.6357">&#128073;</text><text fill="#000000" font-family="sans-serif" font-size="14" font-style="italic" lengthAdjust="spacing" textLength="50.6885" x="605.6553" y="991.6357">docling</text><text fill="#000000" font-family="sans-serif" font-size="14" lengthAdjust="spacing" textLength="192.6846" x="660.7939" y="991.6357">from IBM, circa 2025 to try.</text><path d="M528.3535,946.0469 L538.3535,946.0469 C553.3535,946.0469 553.3535,937.8984 568.3535,937.8984 L578.3535,937.8984 " fill="none" style="stroke:#181818;stroke-width:1.0;"/><rect fill="#FFFFE0" height="85.1875" rx="12.5" ry="12.5" style="stroke:#181818;stroke-width:1.5;" width="327.084" x="578.3535" y="1024.9375"/><text fill="#000000" font-family="sans-serif" font-size="14" lengthAdjust="spacing" textLength="250.8447" x="592.8037" y="1047.9326">After the PDF conversion, I discover</text><text fill="#000000" font-family="sans-serif" font-size="14" lengthAdjust="spacing" textLength="22.9756" x="588.3535" y="1064.2295">the</text><text fill="#000000" font-family="sans-serif" font-size="14" font-weight="bold" lengthAdjust="spacing" textLength="112.3281" x="615.7793" y="1064.2295">arxiv.org/html</text><text fill="#000000" font-family="sans-serif" font-size="14" lengthAdjust="spacing" textLength="132.8154" x="728.1074" y="1064.2295">, experimental and</text><text fill="#000000" font-family="sans-serif" font-size="14" lengthAdjust="spacing" textLength="302.6338" x="588.3535" y="1080.5264">likely needs BeautifulSoup but an option to</text><text fill="#000000" font-family="sans-serif" font-size="14" lengthAdjust="spacing" textLength="130.9971" x="588.3535" y="1096.8232">avoid PDF parsing.</text><path d="M528.3535,946.0469 L538.3535,946.0469 C553.3535,946.0469 553.3535,1067.5313 568.3535,1067.5313 L578.3535,1067.5313 " fill="none" style="stroke:#181818;stroke-width:1.0;"/><rect fill="#FFFFE0" height="117.7813" rx="12.5" ry="12.5" style="stroke:#181818;stroke-width:1.5;" width="459.3867" x="578.3535" y="1130.125"/><text fill="#000000" font-family="sans-serif" font-size="14" lengthAdjust="spacing" textLength="189.7109" x="588.3535" y="1153.1201">How to know what to pull ?</text><text fill="#000000" font-family="sans-serif" font-size="14" lengthAdjust="spacing" textLength="276.0283" x="588.3535" y="1169.417">Each day there are 100s of PDFs just in</text><text fill="#000000" font-family="sans-serif" font-size="14" font-weight="bold" lengthAdjust="spacing" textLength="37.9941" x="868.832" y="1169.417">cs.AI</text><text fill="#000000" font-family="sans-serif" font-size="14" lengthAdjust="spacing" textLength="314.7744" x="588.3535" y="1185.7139">Pulling for 3 months to show weekly trends ?</text><text fill="#000000" font-family="sans-serif" font-size="14" lengthAdjust="spacing" textLength="346.7529" x="588.3535" y="1202.0107">I am curious about the recent ChatGPT world and</text><text fill="#000000" font-family="sans-serif" font-size="14" lengthAdjust="spacing" textLength="366.8779" x="588.3535" y="1218.3076">how quickly things changed and if it would show up.</text><text fill="#000000" font-family="sans-serif" font-size="14" lengthAdjust="spacing" textLength="70.4375" x="588.3535" y="1234.6045">so getting</text><text fill="#000000" font-family="sans-serif" font-size="14" font-weight="bold" lengthAdjust="spacing" textLength="57.9209" x="663.2412" y="1234.6045">3 years</text><text fill="#000000" font-family="sans-serif" font-size="14" lengthAdjust="spacing" textLength="302.1279" x="725.6123" y="1234.6045">worth but at a reduced 10/day sample rate</text><path d="M528.3535,946.0469 L538.3535,946.0469 C553.3535,946.0469 553.3535,1189.0156 568.3535,1189.0156 L578.3535,1189.0156 " fill="none" style="stroke:#181818;stroke-width:1.0;"/><path d="M321.5732,654.9297 L331.5732,654.9297 C346.5732,654.9297 346.5732,946.0469 361.5732,946.0469 L371.5732,946.0469 " fill="none" style="stroke:#181818;stroke-width:1.0;"/><path d="M128.2666,1366.1094 L138.2666,1366.1094 C153.2666,1366.1094 153.2666,654.9297 168.2666,654.9297 L178.2666,654.9297 " fill="none" style="stroke:#181818;stroke-width:1.0;"/><rect fill="#90EE90" height="36.2969" rx="12.5" ry="12.5" style="stroke:#181818;stroke-width:1.5;" width="149.3701" x="178.2666" y="1810.1953"/><text fill="#000000" font-family="sans-serif" font-size="14" lengthAdjust="spacing" textLength="129.3701" x="188.2666" y="1833.1904">&#10004;&#65039; Data Processing</text><rect fill="#90EE90" height="36.2969" rx="12.5" ry="12.5" style="stroke:#181818;stroke-width:1.5;" width="103.8359" x="377.6367" y="1463.2813"/><text fill="#000000" font-family="sans-serif" font-size="14" lengthAdjust="spacing" textLength="83.8359" x="387.6367" y="1486.2764">&#10004;&#65039; Summary</text><rect fill="#F1F1F1" height="95.1875" rx="12.5" ry="12.5" style="stroke:#181818;stroke-width:1.5;" width="225.0098" x="531.4727" y="1267.9063"/><text fill="#000000" font-family="sans-serif" font-size="14" lengthAdjust="spacing" textLength="81.334" x="541.4727" y="1290.9014">&#10004;&#65039; Research</text><line style="stroke:#181818;stroke-width:1.0;" x1="531.4727" x2="756.4824" y1="1299.2031" y2="1299.2031"/><text fill="#000000" font-family="sans-serif" font-size="14" font-style="italic" lengthAdjust="spacing" textLength="45.7871" x="541.4727" y="1317.1982">gpt-4o</text><text fill="#000000" font-family="sans-serif" font-size="14" font-style="italic" lengthAdjust="spacing" textLength="81.1289" x="541.4727" y="1333.4951">gpt-4o-mini</text><text fill="#000000" font-family="sans-serif" font-size="14" lengthAdjust="spacing" textLength="114.9805" x="627.0518" y="1333.4951">much faster and</text><text fill="#000000" font-family="sans-serif" font-size="14" lengthAdjust="spacing" textLength="117.7354" x="541.4727" y="1349.792">I need the speed</text><path d="M481.4727,1481.4297 L491.4727,1481.4297 C506.4727,1481.4297 506.4727,1315.5 521.4727,1315.5 L531.4727,1315.5 " fill="none" style="stroke:#181818;stroke-width:1.0;"/><rect fill="#F1F1F1" height="36.2969" rx="12.5" ry="12.5" style="stroke:#181818;stroke-width:1.5;" width="152.5898" x="531.4727" y="1383.0938"/><text fill="#000000" font-family="sans-serif" font-size="14" lengthAdjust="spacing" textLength="132.5898" x="541.4727" y="1406.0889">&#10004;&#65039; Prompt research</text><path d="M481.4727,1481.4297 L491.4727,1481.4297 C506.4727,1481.4297 506.4727,1401.2422 521.4727,1401.2422 L531.4727,1401.2422 " fill="none" style="stroke:#181818;stroke-width:1.0;"/><rect fill="#F1F1F1" height="68.8906" rx="12.5" ry="12.5" style="stroke:#181818;stroke-width:1.5;" width="286.3076" x="531.4727" y="1439.3906"/><text fill="#000000" font-family="sans-serif" font-size="14" lengthAdjust="spacing" textLength="63.8955" x="545.9229" y="1462.3857">Outcome</text><text fill="#000000" font-family="sans-serif" font-size="14" lengthAdjust="spacing" textLength="153.1592" x="545.9229" y="1478.6826">- Great quality overall</text><text fill="#000000" font-family="sans-serif" font-size="14" lengthAdjust="spacing" textLength="261.8574" x="545.9229" y="1494.9795">- Generates Topics and Keyworsd too</text><path d="M481.4727,1481.4297 L491.4727,1481.4297 C506.4727,1481.4297 506.4727,1473.8359 521.4727,1473.8359 L531.4727,1473.8359 " fill="none" style="stroke:#181818;stroke-width:1.0;"/><rect fill="#FFFFE0" height="166.6719" rx="12.5" ry="12.5" style="stroke:#181818;stroke-width:1.5;" width="353.3613" x="531.4727" y="1528.2813"/><text fill="#000000" font-family="sans-serif" font-size="14" lengthAdjust="spacing" textLength="65.085" x="545.9229" y="1551.2764">Problems</text><text fill="#000000" font-family="sans-serif" font-size="14" lengthAdjust="spacing" textLength="301.4102" x="545.9229" y="1567.5732">- Switch to generating batch requests jsonl</text><text fill="#000000" font-family="sans-serif" font-size="14" lengthAdjust="spacing" textLength="270.9629" x="545.9229" y="1583.8701">- Use OpenAI's scripts to run the batch</text><text fill="#000000" font-family="sans-serif" font-size="14" lengthAdjust="spacing" textLength="286.7949" x="554.8232" y="1600.167">and handle request and token rate limits</text><text fill="#000000" font-family="sans-serif" font-size="14" lengthAdjust="spacing" textLength="290.459" x="545.9229" y="1616.4639">- Quite slow. 2 hours for 1000 summaries</text><text fill="#000000" font-family="sans-serif" font-size="14" lengthAdjust="spacing" textLength="316.4014" x="545.9229" y="1632.7607">- Crashed after a while and took my ethernet</text><text fill="#000000" font-family="sans-serif" font-size="14" lengthAdjust="spacing" textLength="259.7793" x="554.8232" y="1649.0576">driver with it. After restart refused to</text><text fill="#000000" font-family="sans-serif" font-size="14" lengthAdjust="spacing" textLength="315.5605" x="554.8232" y="1665.3545">work again leaving me with 2500 summaries</text><text fill="#000000" font-family="sans-serif" font-size="14" lengthAdjust="spacing" textLength="49.2256" x="554.8232" y="1681.6514">in total</text><path d="M481.4727,1481.4297 L491.4727,1481.4297 C506.4727,1481.4297 506.4727,1611.6172 521.4727,1611.6172 L531.4727,1611.6172 " fill="none" style="stroke:#181818;stroke-width:1.0;"/><path d="M327.6367,1828.3438 L337.6367,1828.3438 C352.6367,1828.3438 352.6367,1481.4297 367.6367,1481.4297 L377.6367,1481.4297 " fill="none" style="stroke:#181818;stroke-width:1.0;"/><rect fill="#FFFFE0" height="36.2969" rx="12.5" ry="12.5" style="stroke:#181818;stroke-width:1.5;" width="183.0918" x="377.6367" y="2033.7188"/><text fill="#000000" font-family="sans-serif" font-size="14" lengthAdjust="spacing" textLength="163.0918" x="387.6367" y="2056.7139">Tags/Topics/Categories</text><rect fill="#F1F1F1" height="276.7813" rx="12.5" ry="12.5" style="stroke:#181818;stroke-width:1.5;" width="381.4365" x="610.7285" y="1714.9531"/><text fill="#000000" font-family="sans-serif" font-size="16" font-weight="bold" lengthAdjust="spacing" textLength="83.1094" x="620.7285" y="1739.8047">Research</text><line style="stroke:#181818;stroke-width:1.0;" x1="610.7285" x2="992.165" y1="1748.5781" y2="1748.5781"/><text fill="#000000" font-family="sans-serif" font-size="14" lengthAdjust="spacing" textLength="361.4365" x="620.7285" y="1766.5732">Cross Papers, Medium articles, Reddit and ChatGPT</text><text fill="#000000" font-family="sans-serif" font-size="14" lengthAdjust="spacing" textLength="4.4502" x="620.7285" y="1782.8701">&#160;</text><text fill="#000000" font-family="sans-serif" font-size="14" font-weight="bold" lengthAdjust="spacing" textLength="134.1895" x="620.7285" y="1799.167">Gensim with LDA</text><text fill="#000000" font-family="sans-serif" font-size="14" lengthAdjust="spacing" textLength="161.7725" x="754.918" y="1799.167">: Quite a few examples</text><text fill="#000000" font-family="sans-serif" font-size="14" lengthAdjust="spacing" textLength="279.5215" x="620.7285" y="1815.4639">online. ChatGPT itself also recommends</text><text fill="#000000" font-family="sans-serif" font-size="14" lengthAdjust="spacing" textLength="286.0908" x="620.7285" y="1831.7607">it even when given the option of chosing</text><text fill="#000000" font-family="sans-serif" font-size="14" lengthAdjust="spacing" textLength="153.7197" x="620.7285" y="1848.0576">a commercial LLM API</text><text fill="#000000" font-family="sans-serif" font-size="14" lengthAdjust="spacing" textLength="4.4502" x="620.7285" y="1864.3545">&#160;</text><text fill="#000000" font-family="sans-serif" font-size="14" font-weight="bold" lengthAdjust="spacing" textLength="73.3018" x="620.7285" y="1880.6514">BERTopic</text><text fill="#000000" font-family="sans-serif" font-size="14" lengthAdjust="spacing" textLength="192.5957" x="698.4805" y="1880.6514">comes up as more modern.</text><text fill="#000000" font-family="sans-serif" font-size="14" lengthAdjust="spacing" textLength="115.6504" x="620.7285" y="1896.9482">finetuned BERT?</text><text fill="#000000" font-family="sans-serif" font-size="14" lengthAdjust="spacing" textLength="4.4502" x="620.7285" y="1913.2451">&#160;</text><text fill="#000000" font-family="sans-serif" font-size="14" lengthAdjust="spacing" textLength="293.4873" x="620.7285" y="1929.542">However, recent 2024/2025 papers about</text><text fill="#000000" font-family="sans-serif" font-size="14" lengthAdjust="spacing" textLength="319.5322" x="620.7285" y="1945.8389">using LLM for topic modeling. Suggest similar</text><text fill="#000000" font-family="sans-serif" font-size="14" lengthAdjust="spacing" textLength="300.5146" x="620.7285" y="1962.1357">advatages as in NLU usacases. LDA has no</text><text fill="#000000" font-family="sans-serif" font-size="14" lengthAdjust="spacing" textLength="359.249" x="620.7285" y="1978.4326">semantic understanding of the context unlike LLMs</text><path d="M560.7285,2051.8672 L570.7285,2051.8672 C585.7285,2051.8672 585.7285,1853.3438 600.7285,1853.3438 L610.7285,1853.3438 " fill="none" style="stroke:#181818;stroke-width:1.0;"/><rect fill="#F1F1F1" height="52.5938" rx="12.5" ry="12.5" style="stroke:#181818;stroke-width:1.5;" width="282.5205" x="610.7285" y="2011.7344"/><text fill="#000000" font-family="sans-serif" font-size="14" lengthAdjust="spacing" textLength="69.2207" x="625.1787" y="2034.7295">Could use</text><text fill="#000000" font-family="sans-serif" font-size="14" font-style="italic" lengthAdjust="spacing" textLength="81.1289" x="698.8496" y="2034.7295">gpt-4o-mini</text><text fill="#000000" font-family="sans-serif" font-size="14" lengthAdjust="spacing" textLength="98.8203" x="784.4287" y="2034.7295">Keywords and</text><text fill="#000000" font-family="sans-serif" font-size="14" lengthAdjust="spacing" textLength="145.4004" x="620.7285" y="2051.0264">tags in the summary</text><path d="M560.7285,2051.8672 L570.7285,2051.8672 C585.7285,2051.8672 585.7285,2038.0313 600.7285,2038.0313 L610.7285,2038.0313 " fill="none" style="stroke:#181818;stroke-width:1.0;"/><rect fill="#F1F1F1" height="36.2969" rx="12.5" ry="12.5" style="stroke:#181818;stroke-width:1.5;" width="183.3721" x="610.7285" y="2084.3281"/><text fill="#000000" font-family="sans-serif" font-size="14" lengthAdjust="spacing" textLength="163.3721" x="620.7285" y="2107.3232">BERTopic worked great</text><path d="M560.7285,2051.8672 L570.7285,2051.8672 C585.7285,2051.8672 585.7285,2102.4766 600.7285,2102.4766 L610.7285,2102.4766 " fill="none" style="stroke:#181818;stroke-width:1.0;"/><rect fill="#F1F1F1" height="248.1563" rx="12.5" ry="12.5" style="stroke:#181818;stroke-width:1.5;" width="441.1279" x="610.7285" y="2140.625"/><text fill="#000000" font-family="sans-serif" font-size="14" lengthAdjust="spacing" textLength="65.085" x="625.1787" y="2163.6201">Problems</text><text fill="#000000" font-family="sans-serif" font-size="14" lengthAdjust="spacing" textLength="320.1338" x="625.1787" y="2179.917">- divide by zero errors on my 3.13 installation</text><text fill="#000000" font-family="sans-serif" font-size="14" lengthAdjust="spacing" textLength="304.917" x="625.1787" y="2196.2139">- colab too forever to run on the default t4?</text><text fill="#000000" font-family="sans-serif" font-size="14" lengthAdjust="spacing" textLength="313.5986" x="625.1787" y="2212.5107">- switched over to my GPU Server which was</text><text fill="#000000" font-family="sans-serif" font-size="14" lengthAdjust="spacing" textLength="401.7139" x="634.0791" y="2228.8076">undergoing setup changes. Had 3.12 and it worked great</text><text fill="#000000" font-family="sans-serif" font-size="14" lengthAdjust="spacing" textLength="202.8564" x="625.1787" y="2245.1045">- Using OpenAI said I needed</text><text fill="#000000" font-family="sans-serif" font-size="14" font-style="italic" lengthAdjust="spacing" textLength="119.875" x="832.4854" y="2245.1045">pip install openai</text><text fill="#000000" font-family="sans-serif" font-size="14" lengthAdjust="spacing" textLength="4.4502" x="952.3604" y="2245.1045">.</text><text fill="#000000" font-family="sans-serif" font-size="14" lengthAdjust="spacing" textLength="378.4443" x="634.0791" y="2261.4014">Forgot that pip screws up my mamba installs and had</text><text fill="#000000" font-family="sans-serif" font-size="14" lengthAdjust="spacing" textLength="344.2646" x="634.0791" y="2277.6982">to reinstall py env again! and this time just stuck</text><text fill="#000000" font-family="sans-serif" font-size="14" lengthAdjust="spacing" textLength="40.168" x="634.0791" y="2293.9951">to pip</text><text fill="#000000" font-family="sans-serif" font-size="14" lengthAdjust="spacing" textLength="409.1035" x="625.1787" y="2310.292">- Using OpenAI chaining makes it unusably slow. Switched</text><text fill="#000000" font-family="sans-serif" font-size="14" lengthAdjust="spacing" textLength="33.2705" x="634.0791" y="2326.5889">back</text><text fill="#000000" font-family="sans-serif" font-size="14" lengthAdjust="spacing" textLength="412.2275" x="625.1787" y="2342.8857">- The markdown format summaries don't seem to be great</text><text fill="#000000" font-family="sans-serif" font-size="14" lengthAdjust="spacing" textLength="89.4688" x="634.0791" y="2359.1826">for BERTopic</text><text fill="#000000" font-family="sans-serif" font-size="14" lengthAdjust="spacing" textLength="4.4502" x="620.7285" y="2375.4795">&#160;</text><path d="M560.7285,2051.8672 L570.7285,2051.8672 C585.7285,2051.8672 585.7285,2264.7031 600.7285,2264.7031 L610.7285,2264.7031 " fill="none" style="stroke:#181818;stroke-width:1.0;"/><path d="M327.6367,1828.3438 L337.6367,1828.3438 C352.6367,1828.3438 352.6367,2051.8672 367.6367,2051.8672 L377.6367,2051.8672 " fill="none" style="stroke:#181818;stroke-width:1.0;"/><path d="M128.2666,1366.1094 L138.2666,1366.1094 C153.2666,1366.1094 153.2666,1828.3438 168.2666,1828.3438 L178.2666,1828.3438 " fill="none" style="stroke:#181818;stroke-width:1.0;"/><rect fill="#FFFFE0" height="36.2969" rx="12.5" ry="12.5" style="stroke:#181818;stroke-width:1.5;" width="112.6064" x="178.2666" y="2521.375"/><text fill="#000000" font-family="sans-serif" font-size="14" lengthAdjust="spacing" textLength="92.6064" x="188.2666" y="2544.3701">Data Insights</text><rect fill="#F1F1F1" height="36.2969" rx="12.5" ry="12.5" style="stroke:#181818;stroke-width:1.5;" width="247.001" x="340.873" y="2408.7813"/><text fill="#000000" font-family="sans-serif" font-size="14" lengthAdjust="spacing" textLength="144.3955" x="350.873" y="2431.7764">&#10004;&#65039;&#10067; Emerging Trends</text><text fill="#000000" font-family="sans-serif" font-size="14" font-style="italic" lengthAdjust="spacing" textLength="78.1553" x="499.7188" y="2431.7764">incomplete</text><path d="M290.873,2539.5234 L300.873,2539.5234 C315.873,2539.5234 315.873,2426.9297 330.873,2426.9297 L340.873,2426.9297 " fill="none" style="stroke:#181818;stroke-width:1.0;"/><rect fill="#F1F1F1" height="36.2969" rx="12.5" ry="12.5" style="stroke:#181818;stroke-width:1.5;" width="107.7871" x="340.873" y="2465.0781"/><text fill="#000000" font-family="sans-serif" font-size="14" lengthAdjust="spacing" textLength="87.7871" x="350.873" y="2488.0732">&#10004;&#65039; Heatmaps</text><path d="M290.873,2539.5234 L300.873,2539.5234 C315.873,2539.5234 315.873,2483.2266 330.873,2483.2266 L340.873,2483.2266 " fill="none" style="stroke:#181818;stroke-width:1.0;"/><rect fill="#F1F1F1" height="36.2969" rx="12.5" ry="12.5" style="stroke:#181818;stroke-width:1.5;" width="119.9277" x="340.873" y="2521.375"/><text fill="#000000" font-family="sans-serif" font-size="14" lengthAdjust="spacing" textLength="99.9277" x="350.873" y="2544.3701">&#10004;&#65039; Heirarchical</text><path d="M290.873,2539.5234 L300.873,2539.5234 C315.873,2539.5234 315.873,2539.5234 330.873,2539.5234 L340.873,2539.5234 " fill="none" style="stroke:#181818;stroke-width:1.0;"/><rect fill="#F1F1F1" height="36.2969" rx="12.5" ry="12.5" style="stroke:#181818;stroke-width:1.5;" width="177.7666" x="340.873" y="2577.6719"/><text fill="#000000" font-family="sans-serif" font-size="14" lengthAdjust="spacing" textLength="157.7666" x="350.873" y="2600.667">&#10004;&#65039; Cluster visualization</text><path d="M290.873,2539.5234 L300.873,2539.5234 C315.873,2539.5234 315.873,2595.8203 330.873,2595.8203 L340.873,2595.8203 " fill="none" style="stroke:#181818;stroke-width:1.0;"/><rect fill="#F1F1F1" height="36.2969" rx="12.5" ry="12.5" style="stroke:#181818;stroke-width:1.5;" width="253.0576" x="340.873" y="2633.9688"/><text fill="#000000" font-family="sans-serif" font-size="14" lengthAdjust="spacing" textLength="228.6074" x="350.873" y="2656.9639">&#10067; Trends (up/down/percentage?)</text><path d="M290.873,2539.5234 L300.873,2539.5234 C315.873,2539.5234 315.873,2652.1172 330.873,2652.1172 L340.873,2652.1172 " fill="none" style="stroke:#181818;stroke-width:1.0;"/><path d="M128.2666,1366.1094 L138.2666,1366.1094 C153.2666,1366.1094 153.2666,2539.5234 168.2666,2539.5234 L178.2666,2539.5234 " fill="none" style="stroke:#181818;stroke-width:1.0;"/><rect fill="#FFFFE0" height="36.2969" rx="12.5" ry="12.5" style="stroke:#181818;stroke-width:1.5;" width="104.752" x="10" y="2859.1563"/><text fill="#000000" font-family="sans-serif" font-size="14" lengthAdjust="spacing" textLength="84.752" x="20" y="2882.1514">Focus Areas</text><rect fill="#F1F1F1" height="36.2969" rx="12.5" ry="12.5" style="stroke:#181818;stroke-width:1.5;" width="112.7637" x="164.752" y="2774.7109"/><text fill="#000000" font-family="sans-serif" font-size="14" lengthAdjust="spacing" textLength="92.7637" x="174.752" y="2797.7061">Observability</text><rect fill="#F1F1F1" height="36.2969" rx="12.5" ry="12.5" style="stroke:#181818;stroke-width:1.5;" width="357.7773" x="327.5156" y="2718.4141"/><text fill="#000000" font-family="sans-serif" font-size="14" lengthAdjust="spacing" textLength="337.7773" x="337.5156" y="2741.4092">&#10004;&#65039; Ways to understand what the system is doing</text><rect fill="#F1F1F1" height="36.2969" rx="12.5" ry="12.5" style="stroke:#181818;stroke-width:1.5;" width="75.7881" x="735.293" y="2690.2656"/><text fill="#000000" font-family="sans-serif" font-size="14" lengthAdjust="spacing" textLength="55.7881" x="745.293" y="2713.2607">Logging</text><path d="M685.293,2736.5625 L695.293,2736.5625 C710.293,2736.5625 710.293,2708.4141 725.293,2708.4141 L735.293,2708.4141 " fill="none" style="stroke:#181818;stroke-width:1.0;"/><rect fill="#F1F1F1" height="36.2969" rx="12.5" ry="12.5" style="stroke:#181818;stroke-width:1.5;" width="167.0273" x="735.293" y="2746.5625"/><text fill="#000000" font-family="sans-serif" font-size="14" lengthAdjust="spacing" textLength="147.0273" x="745.293" y="2769.5576">Offline output saving</text><path d="M685.293,2736.5625 L695.293,2736.5625 C710.293,2736.5625 710.293,2764.7109 725.293,2764.7109 L735.293,2764.7109 " fill="none" style="stroke:#181818;stroke-width:1.0;"/><path d="M277.5156,2792.8594 L287.5156,2792.8594 C302.5156,2792.8594 302.5156,2736.5625 317.5156,2736.5625 L327.5156,2736.5625 " fill="none" style="stroke:#181818;stroke-width:1.0;"/><rect fill="#F1F1F1" height="36.2969" rx="12.5" ry="12.5" style="stroke:#181818;stroke-width:1.5;" width="133.415" x="327.5156" y="2802.8594"/><text fill="#000000" font-family="sans-serif" font-size="14" lengthAdjust="spacing" textLength="113.415" x="337.5156" y="2825.8545">&#10004;&#65039; Track sources</text><rect fill="#F1F1F1" height="36.2969" rx="12.5" ry="12.5" style="stroke:#181818;stroke-width:1.5;" width="267.1123" x="510.9307" y="2802.8594"/><text fill="#000000" font-family="sans-serif" font-size="14" lengthAdjust="spacing" textLength="247.1123" x="520.9307" y="2825.8545">Embedding source paths in prompt</text><path d="M460.9307,2821.0078 L470.9307,2821.0078 C485.9307,2821.0078 485.9307,2821.0078 500.9307,2821.0078 L510.9307,2821.0078 " fill="none" style="stroke:#181818;stroke-width:1.0;"/><path d="M277.5156,2792.8594 L287.5156,2792.8594 C302.5156,2792.8594 302.5156,2821.0078 317.5156,2821.0078 L327.5156,2821.0078 " fill="none" style="stroke:#181818;stroke-width:1.0;"/><rect fill="#F1F1F1" height="36.2969" rx="12.5" ry="12.5" style="stroke:#181818;stroke-width:1.5;" width="42.0322" x="327.5156" y="2859.1563"/><text fill="#000000" font-family="sans-serif" font-size="14" lengthAdjust="spacing" textLength="22.0322" x="337.5156" y="2882.1514">Etc</text><path d="M277.5156,2792.8594 L287.5156,2792.8594 C302.5156,2792.8594 302.5156,2877.3047 317.5156,2877.3047 L327.5156,2877.3047 " fill="none" style="stroke:#181818;stroke-width:1.0;"/><path d="M114.752,2877.3047 L124.752,2877.3047 C139.752,2877.3047 139.752,2792.8594 154.752,2792.8594 L164.752,2792.8594 " fill="none" style="stroke:#181818;stroke-width:1.0;"/><rect fill="#F1F1F1" height="36.2969" rx="12.5" ry="12.5" style="stroke:#181818;stroke-width:1.5;" width="248.7031" x="164.752" y="2971.75"/><text fill="#000000" font-family="sans-serif" font-size="14" lengthAdjust="spacing" textLength="228.7031" x="174.752" y="2994.7451">&#10060;Switchable Algorithms involved</text><rect fill="#F1F1F1" height="36.2969" rx="12.5" ry="12.5" style="stroke:#181818;stroke-width:1.5;" width="91.3398" x="463.4551" y="2915.4531"/><text fill="#000000" font-family="sans-serif" font-size="14" lengthAdjust="spacing" textLength="71.3398" x="473.4551" y="2938.4482">Clustering</text><path d="M413.4551,2989.8984 L423.4551,2989.8984 C438.4551,2989.8984 438.4551,2933.6016 453.4551,2933.6016 L463.4551,2933.6016 " fill="none" style="stroke:#181818;stroke-width:1.0;"/><rect fill="#F1F1F1" height="36.2969" rx="12.5" ry="12.5" style="stroke:#181818;stroke-width:1.5;" width="133.1416" x="463.4551" y="2971.75"/><text fill="#000000" font-family="sans-serif" font-size="14" lengthAdjust="spacing" textLength="113.1416" x="473.4551" y="2994.7451">Trend Detection</text><path d="M413.4551,2989.8984 L423.4551,2989.8984 C438.4551,2989.8984 438.4551,2989.8984 453.4551,2989.8984 L463.4551,2989.8984 " fill="none" style="stroke:#181818;stroke-width:1.0;"/><rect fill="#F1F1F1" height="36.2969" rx="12.5" ry="12.5" style="stroke:#181818;stroke-width:1.5;" width="435.1123" x="463.4551" y="3028.0469"/><text fill="#000000" font-family="sans-serif" font-size="14" font-style="italic" lengthAdjust="spacing" textLength="415.1123" x="473.4551" y="3051.042">&#10067; Judging which algos are working better, metrics for those</text><path d="M413.4551,2989.8984 L423.4551,2989.8984 C438.4551,2989.8984 438.4551,3046.1953 453.4551,3046.1953 L463.4551,3046.1953 " fill="none" style="stroke:#181818;stroke-width:1.0;"/><path d="M114.752,2877.3047 L124.752,2877.3047 C139.752,2877.3047 139.752,2989.8984 154.752,2989.8984 L164.752,2989.8984 " fill="none" style="stroke:#181818;stroke-width:1.0;"/><!--SRC=[VLZRRXl94NtlhwWW3sip4Y-o76ze65fQ5rjUAbP4UJT0i0_DcIRPovdfsUuUqjm_210W29A7F2JmR-HxyWFPJyYfwgOaE-iOXZsQwQwkEbNdLBM-2b7xMDkch7MheesLeHTqwfgYwe9r3Ra5jTvzRugeL8zkp0-TzQOsJGogr_l3BokxNCMbDwRvZlxzZx_zvrz_fZCTDInK5VR00fRrndJXNKqBOyhGkaZEamvhEbtf-EhwbXRuERgMZePqCvkbPV9oSgdeaBH_RpVvxNn7Wq4H-fFBmO0A7StI-Tq11MCewlUkSVMEjvmteVE6IcFQocZVs6PvaEnWhQrTixLLPODh-es9f9kI2kUzgM2GjZQkI16nIuTmoJRaG-ZldUyNhbQAUhrPQx1lQdI0XTfrJMImegrDhuS5Fttu-mUwTMvDchOhPoegzIuPdrnRMcXRmSLmG9uFLLJPsiRGXvU_HxJ1-8tnT3mS1d7lAHuEwFhi0YiBr-0RP-SvW_jpIM0OBzXXNj3BB_a5kQRQfPVYuCp0bAxscCCfK_RfSjau3yp8rDd0F_z4Kuw5i-BDmdZJ52O08cfr2sVmv6Jf66l_ciucNNcZonsjzCPGwEfQUujDYWEAUXaOshWoTP_U1IDFA8j36quahdrWErDLRllT-ASFV_bZjelK2bpiwsZ8m0RQEWzekz3f2X5EEDUJwqjQkIs7YEopbI3vEVIwMJBqaesWwxP2iAhG3IrH3XmZScPB8wi9yLbNAlKjhnQW3cZdEceOpyeLW4_xOcKtZ9YON7Zm11mXnJNKjK2MwnyHaYvYb_5cz6fjcwWJ3jcAUQu-brQQ5BeqjIteMb3FY4yP2xQcSzJgXcigLTIOHiZO3pIW9wWgr0wA8bi3bRZuP1teLBko0_tXJBjxlazcFlUEWeBE4zg1LK5TwH3WC78m_DK0ML0tfkoA5Dbeo6_OMcsYBbaKsgwgbE8YJkwFKT-7puPKS_nEFjD8TgdHy3TF9QzzkjADNiBcySCyOyTSns9bGaAhDywUidNOYkPzL8D1kwkxjbmSLrMD0B5r3KE0L4SrEXhYt2wQ93K8OSYRKI4hrorN80gfUeS48IUDwKFHkgfCfJn7Ii2L4C5Gkw1Bskf0fUFq8mzmJRKQf4BTqhoB91ABSmrC9QzX0MSQx8n98EPmQQqKbpXdfNG5LoHSbhgvV7brG8NrXOP47ZsL-FokdoF_X2OqMR1VN4-CnRrO7E2uqeR2iR0e_jxhIS7qdLyELh6kUhq3Ck-vt5dWkQn1L5NPjQbsKks1NXhTHRlegfdhMeaEf74j2psxfVJ6sL8E1WG1CNp6ozTko-lN3VxVeWtSvVz4dJDCN0HmqHiX-uXb4E8g-Vc-2m9ohoTz069xZOqCVYfDg7jSYJI55LitPWtt8nGB_f-eIuWr5HqetK59vWuXC1RU54pOVKj2gI3R4ZyRGTShn0fg0RfLh5X0qdSK09A-bUgG0xkshu9Z9OdiLA-NsG8PJRKhgE4lpanioLGH8JBI3m3Q_sslrzv1VXdVpqh5JFHszn4vRammB3Bg47z0ZsKR3u_TO73tU0XAM9Q23Zd85IuWN2QrOwH2YwVd3niBkrEt4V5ayqaxtdOHlT9mFtx5b0EAkh9nHqvwJYKVJ6Cuu81MsTeYDRklpGv81POHzxEjW0-SLwOER686oOMtaI4NOunwefd8S8Ye6RHwEOyRpLiqxidb5u52uMqRfLHyboGuxUFkpuuWpILd99cHLz6jGNv_hwzizNSTUX45-DQd8xISpZyGbRl6nojFlGuhhXmXAKy6wBZPC9G0WcEux7agOITARvcjqbHix6Tk0sUM56x4NKXgoujPtaWlkPjWw95kLETnvkZfGqTajMWkIFvHjya0qoswyo1bP72QfYmEGFBwuiKdTNJgNGXPqW_eofIsGoFtqHOLDrdqXD8cy3Ax-4Ga7eDOycvwDk5wIIXgj9ajP4Z805UHkAI_cPc0t5GBj7Dm3AHrTIt4LZW2ZRu1elXdQVcH4vgr2U9Hh1mJ1Xf5iiiN5X8tdLuHTqouzFByHa96NNFT1Z0PymZq10g4teYiz4aju4pi6g3Eoq-KUhqVCBA2GA6F1oBJUJ9A6gCwEPoFo-CkkZXRPUNgWwtB9PSOCB6LzagN6_0ShzW3fEgtqtUORNIXWq5B162epK0D4XzChHjWJLq35r4OJSa7yIYAy27_t0hnaMMSZxzhcBcZeOBeK_ed0fQ9ZUh1g9PhQ9Tjq1woZrjhCl-GeoM68unJcDv_DDwHyHxyvXQBWd_I7ps1UNXUOVxc6mCs5AxIS-O4eyNuxadgaX-bMUYkWdGVd_3o81h0usrU2hklhjzXl9Kn6Ym3gxbBS-KBK4jfrm6vRBES0zVNkcHtZfAmnu-Z4lNWJKa_8DVeT4aNiGQpXcttOQ3gJAE1P5yEl423TTnce86y2hfZjb9UCc3KSxtV6BBibFa2WgBQcsmX3SqcyViNIJ5MDispgIM6s1Nh_JuSypyE8qpRY2heDGhBSbMWfkReQqcwPdiKsSXS5sisSGkqaV9rwROD9wD64FTAKhhcYyZNhvfFdPk4bHZWCh-h3oBr_45Bs-kCDBDBA07UYRpaZi9tY7DGTCdktgRMFHZO1ho4AaI3blMW_Rp6aRY-Xe_VMI_pDCRpX-zFSQzb3TrOlYdO7_N-ZYhtbdpKewuTSBm349X93IAUF2Ru_udx5wx04351o7mslPtpjKtFBNUvXuT-ouChyBcdQ1vwc54x-5EJpHDaujNKBPTtFxnTB5W22JBIyZWfqlxG_Ar7hYYWxHHPf07Ud6MNIrnUGunuAEBPNdgrR3-FXKgNkvHvb8AXISLY7rSrhzwuQcDAMPo1snyjID4PSd5toqU66CCtNIbfIwJJC9TkR4mcQSqOZ5WlSItmtF553g7DdDIlO7J_omXrNK7OtbrDAG-mDEgpkFQVFPe1kvbfQVYCHgFnwClnw1czkpqLxNsi7hswdkx3ni2BKp1nOVzZzKPlDDtWfWxIZ8KMRyw-th-WysPZlMjuzbLllhcwN_3huyENDkx5v9ihTPRLvnm5oI2FSVh5uPTg2XtfK2nZK5MTygy4_0xVPly5]--></g></svg>